<?xml version="1.0" encoding="utf-8"?>
<!-- Generator: Adobe Illustrator 22.1.0, SVG Export Plug-In . SVG Version: 6.00 Build 0)  -->
<svg version="1.1" id="Calque_1" xmlns="http://www.w3.org/2000/svg" xmlns:xlink="http://www.w3.org/1999/xlink" x="0px" y="0px"
	 viewBox="0 0 45.2 67.4" style="enable-background:new 0 0 45.2 67.4;" xml:space="preserve">
<g>
	<path d="M43.8,54.1H24.4l20.3-41.2c0.2-0.3,0.1-0.7,0-1c-0.2-0.3-0.5-0.5-0.9-0.5H1.6c-0.4,0-0.7,0.2-0.9,0.5c-0.2,0.3-0.2,0.7,0,1
		l4.2,8.4c-2.5,3.7-3.8,8-3.8,12.5c0,8.8,5,16.7,12.9,20.3H2.1c-0.6,0-1,0.5-1,1c0,0.6,0.5,1,1,1h41.6c0.6,0,1-0.5,1-1
		C44.8,54.5,44.4,54.1,43.8,54.1z M42.1,13.4L23.7,50.7V13.4H42.1z M3.3,13.4H14c-3,1.4-5.6,3.5-7.7,6L3.3,13.4z M5.9,23.4l15,30.5
		C11,52.8,3.2,44,3.2,33.7C3.2,30.1,4.1,26.6,5.9,23.4z M21.7,13.5v37.2L7.3,21.5C10.7,16.8,16,13.9,21.7,13.5z"/>
	<path d="M22.7,58.9c-0.6,0-1,0.5-1,1v5.8c0,0.6,0.5,1,1,1c0.6,0,1-0.5,1-1v-5.8C23.7,59.4,23.3,58.9,22.7,58.9z"/>
	<path d="M22.7,8.6c0.6,0,1-0.5,1-1V1.8c0-0.6-0.5-1-1-1c-0.6,0-1,0.5-1,1v5.8C21.7,8.1,22.1,8.6,22.7,8.6z"/>
</g>
</svg>
