<?xml version="1.0" encoding="utf-8"?>
<!-- Generator: Adobe Illustrator 16.0.0, SVG Export Plug-In . SVG Version: 6.00 Build 0)  -->
<!DOCTYPE svg PUBLIC "-//W3C//DTD SVG 1.0//EN" "http://www.w3.org/TR/2001/REC-SVG-20010904/DTD/svg10.dtd">
<svg version="1.0" id="Calque_1" xmlns="http://www.w3.org/2000/svg" xmlns:xlink="http://www.w3.org/1999/xlink" x="0px" y="0px"
	 width="161.531px" height="87.235px" viewBox="0 0 161.531 87.235" enable-background="new 0 0 161.531 87.235"
	 xml:space="preserve">
<g>
	<g>
		<g>
			<g>
				<path fill="#FFFFFF" d="M45.146,54.8c0.001-1.063,0.881-1.856,1.893-1.858l0,0c1.014,0.002,1.897,0.795,1.898,1.858l0,0
					c0,1.068-0.885,1.861-1.898,1.863l0,0C46.027,56.661,45.147,55.867,45.146,54.8L45.146,54.8z"/>
			</g>
			<g>
				<path fill="#FFFFFF" d="M147.82,80.417c0-1.751,3.264-1.035,4.279-3.703c0,0,1.33-3.525,1.344-3.566l0,0l-4.872-12.173
					c-0.413-0.962-0.413-1.236-1.851-1.236l0,0h-0.078v-1.242h6.45v1.242h-0.407c-1.721,0-1.189,0.911-1.026,1.373
					c0.088,0.248,3.271,8.661,3.271,8.661s2.882-7.636,3.258-8.653c0.109-0.304,0.378-0.824,0.081-1.129
					c-0.176-0.181-0.446-0.252-1.25-0.252c-0.078,0-0.564,0-0.564,0v-1.242h5.077v1.242h-0.13c-1.343,0-1.362,0.148-1.76,1.105l0,0
					l-3.916,10.538c-0.663,1.717-2.354,6.113-2.354,6.113c-0.704,1.861-1.662,4.233-3.994,4.233
					C148.474,81.729,147.82,81.091,147.82,80.417z"/>
			</g>
			<g>
				<path fill="#FFFFFF" d="M68.759,71.974c1.716,0,3.273-0.833,4.328-2.213l0.854,0.528c-1.084,1.562-3.087,2.858-6.195,2.858
					c-3.924,0-6.984-3.283-6.984-7.598c0-4.773,2.918-7.36,6.984-7.36c3.995,0,6.272,2.222,6.3,5.151
					c0,1.701-1.017,2.702-2.771,2.702c-0.432,0-5.321,0-5.321,0v-1.249c0,0,3.277-0.052,3.844-0.068
					c1.237-0.037,1.298-0.352,1.298-0.811c0-1.895-0.004-4.799-3.205-4.799c-1.182,0-3.509,0.441-3.509,6.434
					C64.38,69.616,66.176,71.974,68.759,71.974L68.759,71.974"/>
			</g>
			<g>
				<path fill="#FFFFFF" d="M110.517,71.974c1.715,0,3.274-0.833,4.328-2.213l0.853,0.528c-1.083,1.562-3.086,2.858-6.194,2.858
					c-3.925,0-6.984-3.283-6.984-7.598c0-4.773,2.917-7.36,6.984-7.36c3.995,0,6.272,2.222,6.3,5.151
					c0,1.701-1.017,2.702-2.772,2.702c-0.43,0-5.319,0-5.319,0v-1.249c0,0,3.276-0.052,3.843-0.068
					c1.237-0.037,1.299-0.352,1.299-0.811c0-1.895-0.003-4.799-3.206-4.799c-1.182,0-3.51,0.441-3.51,6.434
					C106.137,69.616,107.933,71.974,110.517,71.974L110.517,71.974"/>
			</g>
			<path fill="#FFFFFF" d="M28.838,72.978V62.727c-0.016-2.112-0.646-3.159-2.552-3.169l0,0c-1.41,0.006-3.1,1.068-3.108,4.871l0,0
				v5.994c0,1.113,0,1.366,1.67,1.366l0,0h0.079v1.188h-6.63v-1.188h0.08c1.733,0,1.733-0.433,1.733-1.366l0,0v-9.485
				c0-0.937,0-1.199-1.733-1.199l0,0h-0.08v-1.185l4.694-0.189v2.57c0.711-1.66,2.045-2.748,3.943-2.746l0,0
				c2.245-0.006,3.788,0.943,4.529,3.113l0,0c1.029-2.141,2.638-3.115,4.533-3.113l0,0c0.984,0.001,2.138,0.205,3.052,0.911l0,0
				c0.914,0.705,1.574,1.911,1.572,3.872l0,0v7.451c0,0.909,0,1.366,1.566,1.366l0,0h0.076v1.188H37.56V62.727
				c-0.014-2.112-0.643-3.159-2.552-3.169l0,0c-1.408,0.006-3.098,1.066-3.105,4.871l0,0v5.994c0,1.078,0.158,1.366,1.668,1.365l0,0
				h0.077v1.189H28.838z"/>
			<path fill="#FFFFFF" d="M49.145,70.423c0,1.113,0,1.366,1.669,1.366l0,0h0.078v1.188h-6.628v-1.188h0.079
				c1.734,0,1.734-0.433,1.734-1.366l0,0v-9.485c0-0.937,0-1.199-1.734-1.199l0,0h-0.079v-1.185l4.881-0.189V70.423z"/>
			<path fill="#FFFFFF" d="M57.701,70.423c0,1.113,0,1.366,1.67,1.366l0,0h0.079v1.188h-6.63v-1.188h0.078
				c1.735,0,1.735-0.433,1.735-1.366l0,0V54.497c0-0.936,0-1.197-1.735-1.197l0,0H52.82v-1.186l4.881-0.188V70.423z"/>
			<path fill="#FFFFFF" d="M131.404,62.972l0.002,7.451c0,1.078,0.158,1.366,1.668,1.365l0,0h0.077v1.189h-4.812V62.727
				c-0.014-2.112-0.645-3.159-2.55-3.169l0,0c-1.409,0.006-3.547,1.067-3.556,4.871l0,0v5.994c0,1.113,0,1.366,1.67,1.366l0,0h0.078
				v1.188h-6.629v-1.188h0.078c1.735,0,1.735-0.433,1.735-1.366l0,0v-9.486c0-0.936,0-1.198-1.735-1.198l0,0h-0.078v-1.185
				l4.694-0.189v2.57c0.711-1.66,2.491-2.748,4.391-2.746l0,0c0.985,0.001,2.478,0.205,3.392,0.911l0,0
				C130.744,59.805,131.406,61.011,131.404,62.972z"/>
			<path fill="#FFFFFF" d="M146.277,60.889c0,1.021-0.604,1.394-1.164,1.394c-1.326,0-0.881-2.459-2.93-2.459l0,0
				c-0.967,0.004-2.707,0.805-2.714,4.605l0,0v5.994c0,1.113,0,1.366,1.669,1.366l0,0h0.078v1.188h-6.628v-1.188h0.078
				c1.734,0,1.734-0.433,1.734-1.366l0,0v-9.486c0-0.936,0-1.198-1.734-1.198l0,0h-0.078v-1.185l4.693-0.189v2.57
				c0.711-1.66,2.154-2.748,4.054-2.746l0,0C145.192,58.188,146.277,59.738,146.277,60.889z"/>
			<path fill="#FFFFFF" d="M96.392,62.646c0-0.186,0-0.593-0.355-0.593h-9.153c-0.353,0-0.353,0.407-0.353,0.593v6.95
				c0,1.721,0,2.193,2.076,2.193v1.189h-7.152v-1.189c1.936,0,1.936-0.923,1.936-1.81V54.03c0-2.161,0-2.722-1.936-2.722v-1.204
				h7.152v1.204c-2.076,0-2.076,0.515-2.076,2.191v5.948c0,0.365,0,0.475,0.431,0.475h8.999c0.43,0,0.432-0.109,0.432-0.475
				L96.39,53.5c0.002-1.677,0.145-2.191-2.076-2.191v-1.204h7.321v1.204c-2.02,0-2.104,0.561-2.104,2.722v15.949
				c0,0.887,0.085,1.81,2.104,1.81v1.189h-7.321v-1.189c2.33,0,2.078-0.473,2.078-2.193V62.646z"/>
			<path fill="#FFFFFF" d="M5.035,59.448L5.034,54.03c0-2.722,1.424-2.722,4.77-2.722c3.979,0,3.832,1.994,4.77,4.56h0.776
				l-0.074-5.764H0v1.204c1.935,0,1.935,0.561,1.935,2.722v15.949c0,0.885,0,1.81-1.935,1.81v1.188h15.779l0.124-5.975h-0.937
				c-0.321,4.246-2.462,4.786-4.971,4.786c-4.814,0-4.962-0.891-4.962-1.81l0.001-7.334c0-0.186,0-0.594,0.354-0.594h6.455
				c0.209,0,0.278-0.097,0.278-0.199c0-0.203,0-1.519,0-1.725c0-0.102-0.069-0.205-0.278-0.205c-0.242,0-6.378,0-6.378,0
				C5.036,59.923,5.035,59.813,5.035,59.448z"/>
		</g>
		<line fill="#FFFFFF" x1="157.4" y1="59.738" x2="156.836" y2="59.738"/>
		<g>
			<path fill="#FFFFFF" d="M49.145,84.955v2.184H47.88v-5.464h6.306v0.916h-5.041v1.408h4.688v0.956H49.145z"/>
			<path fill="#FFFFFF" d="M64.604,87.139l-2.052-2.181h-1.816v2.181h-1.264v-5.464h4.88c1.128,0,1.856,0.551,1.856,1.63
				c0,0.98-0.592,1.588-1.76,1.588h-0.372l2.182,2.246H64.604z M64.101,82.599h-3.365v1.443h3.356c0.512,0,0.885-0.244,0.885-0.737
				C64.977,82.761,64.555,82.599,64.101,82.599z"/>
			<path fill="#FFFFFF" d="M77.5,87.139l-0.707-1.168h-3.915l-0.696,1.168h-1.548l3.606-5.513h1.217l3.606,5.513H77.5z
				 M74.84,82.696l-1.475,2.423h2.943L74.84,82.696z"/>
			<path fill="#FFFFFF" d="M90.866,87.235l-5.788-3.68v3.583h-1.232v-5.554h0.162l5.779,3.633v-3.543h1.231v5.561H90.866z"/>
			<path fill="#FFFFFF" d="M102.95,86.7c-0.843,0.309-1.815,0.535-3.016,0.535c-2.025,0-3.972-0.786-3.972-2.829
				c0-2.188,2.254-2.821,3.972-2.821c1.193,0,2.147,0.229,2.983,0.528l0.179,0.063l-0.267,0.9l-0.155-0.064
				c-0.696-0.292-1.604-0.471-2.626-0.471c-1.67,0-2.789,0.575-2.789,1.856c0,1.272,1.16,1.88,2.789,1.88
				c1.135,0,1.961-0.202,2.65-0.486l0.138-0.057l0.267,0.908L102.95,86.7z"/>
			<path fill="#FFFFFF" d="M107.951,87.139v-5.464h6.307v0.867h-5.042v1.452h4.6v0.867h-4.6v1.401h5.042v0.876H107.951z"/>
		</g>
		<g>
			<path fill="#FFFFFF" d="M81.069,1.769c-10.565,0-19.129,8.893-19.129,19.458c0,10.564,8.563,19.458,19.129,19.458
				c10.564,0,19.456-8.893,19.456-19.458C100.525,10.662,91.634,1.769,81.069,1.769z M57.588,21.305C57.588,2.098,78.455,0,83.613,0
				c14.724,0,18.773,12.485,18.773,22.334c0,12.237-8.169,20.383-19.392,20.383C66.918,42.717,57.588,31.15,57.588,21.305z"/>
			<path fill="#FFFFFF" d="M72.88,18.557v-4.826c0-2.722,1.424-2.722,4.77-2.722c3.978,0,3.832,1.995,4.769,4.56h0.778l-0.074-5.765
				H67.846v1.205c1.935,0,1.935,0.56,1.935,2.722v15.95c0,0.885,0,1.809-1.935,1.809v1.19h15.779l0.123-5.976h-0.936
				c-0.322,4.246-2.461,4.786-4.969,4.786c-4.816,0-4.964-0.89-4.964-1.809v-6.876c0-1.052,0.396-1.052,1.011-1.052h3.479
				c0.21,0,0.28-0.097,0.28-0.2c0-0.204,0-1.519,0-1.725c0-0.103-0.07-0.205-0.28-0.205c-0.241,0-3.4,0-3.4,0
				C73.396,19.624,72.88,19.624,72.88,18.557z"/>
			<path fill="#FFFFFF" d="M87.405,19.624c0.573,0,1.089,0,1.089-1.067v-5.356c0.001-1.676,0.143-2.192-2.078-2.192V9.805h7.32
				v1.204c-2.018,0-2.103,0.56-2.103,2.723v15.949c0,0.885,0.085,1.809,2.103,1.809v1.189h-7.32V31.49
				c2.331,0,2.079-0.473,2.079-2.193l-0.001-6.492c0-1.052-0.397-1.052-1.012-1.052h-7.425c-0.21,0-0.279-0.097-0.279-0.2
				c0-0.204,0-1.519,0-1.725c0-0.102,0.069-0.205,0.279-0.205C80.3,19.624,87.405,19.624,87.405,19.624z"/>
		</g>
	</g>
</g>
</svg>
