<svg id="Laag_1" data-name="Laag 1" xmlns="http://www.w3.org/2000/svg" viewBox="0 0 473.34 191.74"><defs><style>.cls-1{fill:#e20613;}.cls-2{fill:#ed1c24;}.cls-3{fill:#fff;}</style></defs><title>fatboy-logo-horizontal</title><path class="cls-1" d="M131.4,109.65c-2.86-.09-5.71-.09-7.78-.11-6.79,0-8.18,2.94-8.17,7.31s1.8,6.34,6,6.34c3.31,0,6.64-1.55,10.22-4.72l.14-.13v-8.62Z" transform="translate(0 0.02)"/><path class="cls-1" d="M433.09,122a6.54,6.54,0,1,0-6.28,6.28A6.54,6.54,0,0,0,433.09,122Zm-11-.6a2.81,2.81,0,0,1,2.61-3h.18a2.56,2.56,0,0,1,2.39,1.64l3.73-1.87v2.3l-3.47,1.62v1H431v2h-9Z" transform="translate(0 0.02)"/><path class="cls-1" d="M424.87,120.45a1.13,1.13,0,0,0-1.15,1.11V123H426v-1.41a1.13,1.13,0,0,0-1.08-1.18Z" transform="translate(0 0.02)"/><path class="cls-1" d="M320.87,120.72c8.56,0,12.68-5.55,12.69-17s-4.28-17.15-12.71-17.15-12.67,5.78-12.67,17.15S312.35,120.77,320.87,120.72Z" transform="translate(0 0.02)"/><path class="cls-1" d="M246.25,120.72c8.43,0,12.53-5.57,12.53-17,0-11.1-3-16.48-9.16-16.48-3.44,0-7,1.46-10.79,4.45v28.57C241.66,120.53,244.29,120.72,246.25,120.72Z" transform="translate(0 0.02)"/><path class="cls-2" d="M197.88,191.72H473.34V0H140.73L0,0V191.72Zm228.66-78.15a8.42,8.42,0,1,1-8.41,8.43v0a8.4,8.4,0,0,1,8.39-8.41ZM376.8,71.8v.12l14,43.11L403.63,71.8h20.93l-22.83,65.53c-6.35,16.11-16.18,26-41.44,19.38l4.11-15a25.37,25.37,0,0,0,5.55.73c6.71,0,8.89-3.25,10.26-8.07L354.85,71.8Zm-55.93-1.39c16.15,0,33.36,8.74,33.36,33.32,0,21.19-12.16,33.34-33.36,33.34-20.86,0-33.32-12.44-33.31-33.33,0-24.59,17.2-33.32,33.3-33.33Zm-82-31.73V74.36a24.73,24.73,0,0,1,14-4c16.87,0,26.56,12.14,26.56,33.32s-12,33.35-32.8,33.33a135.05,135.05,0,0,1-27.11-3l-.68-.15V38.72Zm-184.77,97v-47H44.69V72.82H54.1V60.5c0-14.49,8.78-23.18,23-23.17,6.87,0,13.26,2,18.66,3.82l.76.26L92.4,56.72l-.82-.22c-4.08-1-8.3-2.14-11.94-2.13s-4.93,2-4.94,6.89V72.88H90.48V88.72H74.71v47Zm85.46,0-3.77-5.3a27.57,27.57,0,0,1-18,6.64c-14.11,0-21.27-6.39-21.27-19,0-14.27,8.34-21.19,27.11-21.19a72.4,72.4,0,0,1,8.06.54V96.23c0-5.4-1.46-8.73-6.85-8.73S113.2,89.29,107.2,91c-1,.26-1.9.54-2.84.8l-.82.23L99.43,76.87l.78-.25c.72-.25,1.45-.55,2.26-.81,6.71-2.45,15.09-5.47,25.89-5.47,16.11,0,23.48,8.59,23.48,23.69v41.69Zm50.3,1.34c-8.46,0-19.26-3.55-19.26-20.47V87.65H159.43V71.72h11.16V54.15h20.68V71.72h18.5V87.64h-18.5v26.93c0,5.67,2.61,6.32,4.57,6.3a40.22,40.22,0,0,0,8.82-1.83l.61-.17L209,133l-.71.27C203.11,135.08,196.94,137.07,189.86,137.06Z" transform="translate(0 0.02)"/><path class="cls-3" d="M431,123h-3.46v-1l3.46-1.55v-2.3l-3.77,1.89a2.56,2.56,0,0,0-2.39-1.64,2.82,2.82,0,0,0-2.8,2.82c0,.06,0,.12,0,.18v3.64h9Zm-5,0h-2.31v-1.38a1.17,1.17,0,0,1,2.33-.22.81.81,0,0,1,0,.22Z" transform="translate(0 0.02)"/><path class="cls-3" d="M320.87,137.07c21.19,0,33.35-12.15,33.36-33.34,0-24.58-17.21-33.32-33.36-33.32s-33.31,8.74-33.31,33.31C287.54,124.63,300,137.07,320.87,137.07Zm0-50.49c8.43,0,12.72,5.79,12.71,17.15s-4.14,17-12.69,17-12.68-5.56-12.69-17,4.27-17.16,12.66-17.15Z" transform="translate(0 0.02)"/><path class="cls-3" d="M128.34,70.35c-10.8,0-19.18,3-25.89,5.47-.81.27-1.54.57-2.26.81l-.78.25,4.11,15.17.82-.23c.94-.26,1.87-.54,2.84-.8,6-1.72,12.15-3.5,17.64-3.51s6.83,3.33,6.85,8.73v1.19a72.4,72.4,0,0,0-8.06-.54c-18.76,0-27.1,6.92-27.11,21.19,0,12.59,7.17,19,21.27,19a27.57,27.57,0,0,0,18-6.64l3.79,5.28h12.27V94C151.83,78.94,144.45,70.35,128.34,70.35Zm3.3,48.13c-3.57,3.17-6.9,4.72-10.22,4.72-4.18,0-6-1.9-6-6.34s1.39-7.28,8.17-7.31c2.07,0,4.92,0,7.78.11l.38.06v8.62Z" transform="translate(0 0.02)"/><path class="cls-3" d="M209,133l-3.75-14.1-.61.17a40.22,40.22,0,0,1-8.82,1.83c-2,0-4.56-.63-4.57-6.3V87.72h18.5V71.8h-18.5V54.2H170.58V71.72H159.42v16h11.16v28.92c0,16.93,10.8,20.48,19.26,20.47,7.08,0,13.25-2,18.45-3.83Z" transform="translate(0 0.02)"/><path class="cls-3" d="M90.49,88.72V72.81H74.73V61.19c0-4.9,1.22-6.9,4.94-6.89s7.86,1.11,11.94,2.13l.82.22,4.08-15.26-.76-.26C90.34,39.3,84,37.31,77.09,37.31c-14.17,0-23,8.68-23,23.17V72.82h-9.4v15.9h9.42v47H74.72v-47Z" transform="translate(0 0.02)"/><path class="cls-3" d="M370,142.45a25.37,25.37,0,0,1-5.55-.73l-4.15,15c25.25,6.57,35.09-3.28,41.44-19.38l22.85-65.51H403.66L390.82,115l-14-43.11V71.8h-22l25.36,62.57C378.86,139.19,376.67,142.42,370,142.45Z" transform="translate(0 0.02)"/><path class="cls-3" d="M435,122a8.42,8.42,0,1,0-8.43,8.42A8.42,8.42,0,0,0,435,122Zm-15,0a6.54,6.54,0,1,1,6.65,6.43h-.13a6.34,6.34,0,0,1-6.52-6.16V122Z" transform="translate(0 0.02)"/><path class="cls-3" d="M219.53,134.08a135.05,135.05,0,0,0,27.11,3c20.85,0,32.79-12.14,32.8-33.33s-9.69-33.32-26.56-33.32a24.73,24.73,0,0,0-14,4V38.75h-20v95.19Zm30.09-46.81c6.17,0,9.16,5.38,9.16,16.48,0,11.44-4.1,17-12.53,17-2,0-4.59-.23-7.41-.49V91.72C242.65,88.72,246.19,87.27,249.62,87.27Z" transform="translate(0 0.02)"/></svg>