<svg id="Calque_1" data-name="Calque 1" xmlns="http://www.w3.org/2000/svg" viewBox="0 0 674.39 182" width="678.51" height="187.22"><defs><style>.cls-1{fill:#45474f;}</style></defs><path class="cls-1" d="M643.59,67.08a2.08,2.08,0,0,1-.9,2.79s-1.29.84-1.87,1.2a2,2,0,0,1-2.55-.68c-.07-.12-.13-.24-.19-.36a94.85,94.85,0,0,1-6.75-16.36c-.78.09-2.55.11-3.28.11-4.51,0-7.44-1.7-10.54-3.54a40.38,40.38,0,0,0-6-3.1c-4.91-1.9-11.43-2.29-17.74-2.66-8.44-.5-15.73-.93-18.89-4.88a7.38,7.38,0,0,1-1.36-6.08c1.18-7.33,11.9-12.33,21.17-12.4a21.52,21.52,0,0,1,4.45.41c6.1,1.27,11.94,5.13,18.83,10.53a15.82,15.82,0,0,0,6.49,3,8.26,8.26,0,0,1,5.36,3.85c.36-1.87-.29-3,2.34-6a17,17,0,0,0,3.93-6c3-8.2,5.86-14.55,10.42-18.91,4.25-4.07,11.74-6.94,18.2-7,4.38,0,7.8,1.22,9.9,3.63a7.43,7.43,0,0,1,2.06,5.89c-.59,5-6.56,9.25-13.48,14.14-5.15,3.65-10.49,7.42-13.66,11.62a41.12,41.12,0,0,0-3.43,5.78A21.25,21.25,0,0,1,636,52.21a72.14,72.14,0,0,0,7.39,14.56Z" transform="translate(-2.32 -1)"/><path class="cls-1" d="M455.26,183c-28.41-.05-49-19.89-49-47.16s20.62-47.1,49-47.14c13.68,0,26.14,4.73,35.08,13.33s13.93,20.65,13.93,33.82c0,27.23-20.61,47.06-49,47.15Zm0-76.69c-16.92,0-27.43,11.32-27.43,29.53s10.51,29.52,27.43,29.52,27.44-11.32,27.44-29.54c0-17.47-9.88-28.78-25.77-29.51h-1.67Z" transform="translate(-2.32 -1)"/><path class="cls-1" d="M2.32,181.33V87.44C2.32,65.89,19.17,52,45.26,52H78.9V70.63h-33c-9.76,0-16.08,2.8-19.34,8.55C23.81,84,23.82,89.9,23.83,93.06v5.21c0,4,0,16.17.05,23.47v3.52H61.41V143H23.87l-.07,38.31Z" transform="translate(-2.32 -1)"/><path class="cls-1" d="M173.32,181.56V90.05h21.41v8.47a37.16,37.16,0,0,1,5.72-4.07,34,34,0,0,1,15.86-3.53h.58a56.15,56.15,0,0,1,12.39,1.38l3.94,1.08v16.83l-5.83-.92a78.48,78.48,0,0,0-10.62-.82c-7.65,0-13.34,1.81-16.93,5.39-5.08,5.11-5.07,12.85-5.06,17v50.69Z" transform="translate(-2.32 -1)"/><path class="cls-1" d="M271.94,95a33.77,33.77,0,0,1,16.69-4,51.34,51.34,0,0,1,17.81,3.17,37.14,37.14,0,0,1,11.79,6.66l2.27,1.91,2.27-1.91a37.12,37.12,0,0,1,11.78-6.67,56.91,56.91,0,0,1,37.43,0c16,5.58,24.84,18.61,24.81,36.69V181.4H375.32V131c0-4.17,0-11.93-5.08-17.07-3.54-3.57-9.24-5.37-16.95-5.37s-13.42,1.81-17,5.39c-5.07,5.07-5.07,12.85-5.06,17v50.4H309.76V131c0-4.17,0-11.93-5.08-17.07-3.54-3.56-9.24-5.37-16.95-5.37s-13.39,1.81-17,5.39c-5.09,5.13-5.09,12.88-5.09,17.05V181.4H244.25V90.06h21.31v8.81s2.8-1.91,6.38-3.91" transform="translate(-2.32 -1)"/><path class="cls-1" d="M562.67,182.8c-7.86,0-16.22-2.65-21.81-6.92l-5.67-4.33v9.88H513.7V51.52h21.56V95.46l5-2.28a54.41,54.41,0,0,1,22.4-4.74c28.4,0,49,19.83,49,47.15s-20.61,47.12-49,47.21Zm0-76.69c-16.91,0-27.42,11.32-27.42,29.53s10.51,29.52,27.43,29.52,27.44-11.32,27.44-29.54c0-17.47-9.88-28.78-25.77-29.51h-1.68Z" transform="translate(-2.32 -1)"/><path class="cls-1" d="M163.87,137.62c-.18-13.44-4.13-24.71-11.76-33.5-11.56-13.35-27.27-15.35-35.6-15.35-13.6,0-25.77,5.19-34.26,14.6A45.79,45.79,0,0,0,71,134c.16,27.51,20.13,47.84,47.48,48.33h.84c17.37,0,28.15-7.54,34.82-16.14h0c.38-.5.76-1,1.13-1.54l.38-.55a41.37,41.37,0,0,0,5.38-10.27H141.53a17.28,17.28,0,0,1-4.32,5.55c-5.67,4.59-12.65,5.23-18.27,5.23-.81,0-1.63-.05-2.47-.13-16.89-.91-26.11-16.08-26.14-21.72v0h73.55Zm-73.95-11.7c0-8.77,12.42-20.53,27.74-20.53s27.74,11.69,27.74,20.53Z" transform="translate(-2.32 -1)"/></svg>