<svg class="logo--svg" xmlns="http://www.w3.org/2000/svg" viewBox="0 0 371.18 127.85">
<g>

<path class="lettering outdoor" d="M132,11.14c0,6-4.31,10.91-10.66,10.91-6.6,0-10.72-4.91-10.72-10.91S115,0,121.37,0,132,5.14,132,11.14m-18.22,0c0,4.21,2.68,8.07,7.56,8.07s7.5-3.86,7.5-8.07-2.58-8.36-7.5-8.36S113.8,7,113.8,11.17"></path>
<path class="lettering outdoor" d="M154.17,12.92c0,5-2.46,9.12-8.74,9.16s-8.77-4.15-8.77-9.16V.41h3V13.21c.06,4.43,2.46,6.13,5.71,6.13s5.71-1.69,5.71-6.13V.41h3.06Z"></path>
<polygon class="lettering outdoor" points="164.6 3.19 157.9 3.19 157.9 0.45 174.27 0.45 174.27 3.19 167.67 3.19 167.67 21.63 164.6 21.63 164.6 3.19"></polygon>
<path class="lettering outdoor" d="M195.43,10.82c0,6.35-3.89,10.94-11.39,10.82h-5.46V.41h5.07c7.37-.09,11.77,4.05,11.77,10.4M181.64,3.06V18.92h2.43c6.45.07,8.29-4.15,8.26-8.1,0-4.18-2.2-7.75-8.52-7.75Z"></path>
<path class="lettering outdoor" d="M221.27,11.14c0,6-4.31,10.91-10.66,10.91-6.6,0-10.72-4.91-10.72-10.91S204.23,0,210.61,0s10.66,5.14,10.66,11.14m-18.22,0c0,4.21,2.68,8.07,7.56,8.07s7.5-3.86,7.5-8.07-2.58-8.36-7.5-8.36-7.56,4.18-7.56,8.36"></path>
<path class="lettering outdoor" d="M247.12,11.14c0,6-4.31,10.91-10.66,10.91-6.6,0-10.72-4.91-10.72-10.91S230.08,0,236.46,0s10.66,5.14,10.66,11.14m-18.22,0c0,4.21,2.68,8.07,7.56,8.07s7.5-3.86,7.5-8.07-2.58-8.36-7.5-8.36S228.9,7,228.9,11.17"></path>
<path class="lettering outdoor" d="M252.32.41h7.79c4.69,0,6.83,2.46,6.83,6.1a5.32,5.32,0,0,1-4.08,5.23c3.12,1.21,4.62,4.6,4.53,9.89h-3c-.1-8.42-3.86-8.87-6.38-8.87h-2.59v8.87h-3.07Zm7.59,9.8c2.58,0,4-1.5,4-3.67,0-2.49-1.88-3.41-3.92-3.41h-4.56v7.08Z"></path>

<path class="lettering" d="M24.13,86.31A24.76,24.76,0,0,1,9.6,81.91C2.47,77-.79,69.7.16,60.75c.85-8,5.72-14,14.09-17.3,7.08-2.81,15.27-2.89,23.93-.1,1.19.38,1.29.73,1.38,1.32l1.51,11.51H39.89c-1.51-3.52-5.94-9.64-11.75-11.38a12.3,12.3,0,0,0-11.89,2.77A19.88,19.88,0,0,0,10.82,58,28.17,28.17,0,0,0,12,73c1.66,4.64,4.14,8,8,9.61s7.71,1.5,12.11-.41c1.77-1,1.76-2.17,1.76-4.13V69.84c0-1,0-1.51-.83-2,0,0-4.07-1.8-6.86-2.81L26,65V64.1H47.26V65l-.1.06c-2.48,1.49-4.57,2.82-4.59,2.83-.71.45-.68,1-.67,2V80.44c0,1-1.17,2-3.47,3a39.78,39.78,0,0,1-6.86,2.08,36.69,36.69,0,0,1-7.44.81"></path>
<path class="lettering" d="M177.79,43.65s-3.59,1.77-4.07,2.12a5.32,5.32,0,0,0-1.41,2.36l-.12.29L157.89,85.75h-3.37L139.2,48.55c-.44-1.06-.77-2.05-1.82-2.54l-5.06-2.36v-.94h21v.94l-4.75,2.05c-.64.33-.59.85-.27,1.75L159.1,75.28l10.67-27.64c.37-.91.22-1.58-.46-1.85l-4.89-2.15v-.94H177.8Z"></path>
<path class="lettering" d="M228.36,85.93a29.38,29.38,0,0,1-11.06-2.37L215.8,72.23h.95l0,.13a44.38,44.38,0,0,0,5.9,8.46,8.81,8.81,0,0,0,7,2.37,7.28,7.28,0,0,0,5.62-3c1.68-2.66,1.43-5-.83-7.38a44.66,44.66,0,0,0-5.67-4.11c-2-1.31-8.1-5.53-9.46-6.64a11.61,11.61,0,0,1-4-12.17c1-3.52,4.07-6.27,8.47-7.55,2.81-.81,6.57-1.17,12,.54a22.57,22.57,0,0,1,4.23,1.91l1.39,10.92h-1L236,48.85a9.6,9.6,0,0,0-7.53-4.26,6,6,0,0,0-4.35,1.67,5.41,5.41,0,0,0,0,7,32.33,32.33,0,0,0,5.35,4.62,41.1,41.1,0,0,0,4.22,2.7,41.42,41.42,0,0,1,4.24,2.71c4.57,3.52,6.77,8.3,5.67,13.11-1,4.44-5.47,8.22-10.78,9.08a27.68,27.68,0,0,1-4.51.4"></path>
<path class="lettering" d="M65.5,45.15V63.43h8.09c.45,0,1-.95,1.91-2.38l2.22-3.44h.92V71.68h-.92l-2.43-3.73c-.79-1.3-1.27-2.09-1.69-2.09H65.5V82.57l6.56,0c2,0,4.31,0,6.61,0s3.65-.21,4.44-.95c1.49-1.39,2.55-4.51,3.88-7.95l.05-.13H88V85H50.59v-.94l5.7-3.1c.56-.41.95-.83.95-2.25v-30c0-1.71-.34-2-.95-2.26l-5.69-2.69v-1H84.4L85.5,54.37h-1l-.06-.1a71.33,71.33,0,0,0-4.66-7.08l-.49-.64a3.46,3.46,0,0,0-3.15-1.41Z"></path>
<path class="lettering" d="M159.35,111.26c-1.05,1.37-3.67,1.56-4.56,1.5V110c3.83-.1,5-2.9,5.11-3.89h2.42v21.22h-3Z"></path>
<path class="lettering" d="M168.58,121.37a5.58,5.58,0,0,1,4-5,5.15,5.15,0,0,1-3.32-4.72c0-3.86,3.51-5.74,7.11-5.74s7.15,1.95,7.15,5.74a5.16,5.16,0,0,1-3.32,4.72,5.54,5.54,0,0,1,4,5.07c0,4.47-3.76,6.48-7.62,6.45s-8-2-8-6.48m12.57,0c0-2-1.69-3.92-4.75-3.92s-4.79,1.88-4.79,3.92c0,2.36,1.91,3.8,4.75,3.8s4.79-1.47,4.79-3.8m-.7-9.54c0-1.79-1.12-3.48-4-3.48s-4.11,1.69-4.11,3.48c0,2.27,1.53,3.6,4.11,3.6,2.39,0,4-1.4,4-3.6"></path>
<path class="lettering" d="M188.33,121.37a5.58,5.58,0,0,1,4-5,5.15,5.15,0,0,1-3.32-4.72c0-3.86,3.51-5.74,7.11-5.74s7.15,1.95,7.15,5.74a5.16,5.16,0,0,1-3.32,4.72,5.54,5.54,0,0,1,4,5.07c0,4.47-3.76,6.48-7.62,6.45s-8-2-8-6.48m12.57,0c0-2-1.69-3.92-4.75-3.92s-4.79,1.88-4.79,3.92c0,2.36,1.91,3.8,4.75,3.8s4.79-1.47,4.79-3.8m-.7-9.54c0-1.79-1.12-3.48-4-3.48s-4.12,1.69-4.12,3.48c0,2.27,1.53,3.6,4.12,3.6,2.39,0,4-1.4,4-3.6"></path>
<path class="lettering" d="M222.34,112.41c0,4.24-2.65,7.24-10.59,12.22h10.5v2.74h-14v-3.16c9-6.51,11.07-8.58,11.07-11.68a3.83,3.83,0,0,0-4.12-3.89A3.9,3.9,0,0,0,211,113H208c-.19-3.06,1.6-7.05,7.21-7.08,4,0,7.08,2.55,7.08,6.44"></path>
<path class="lettering" d="M124.39,82.13c.19.33.16.61-.2.78l-2.4,1.16V85h17.65l0-.94s-3.74-1.3-4.57-1.76A5.82,5.82,0,0,1,133.25,81c-3.75-5.22-8-11.13-11.13-15.91l.83-.43.7-.36c4.89-2.42,7.23-5.86,6.9-10.82A11.31,11.31,0,0,0,118.89,42.7H94v1l5.53,2.71c.61.3.95.55.95,2.26V79c0,1.66-.39,1.85-.95,2.25L94,84.07V85H114.6l0-.89-5-2.91c-.55-.41-.95-.6-.95-2.25V65.86h1.4a5.9,5.9,0,0,1,5.11,2.51Zm-4.89-21.2c-1.43,1.63-3.75,2.47-6.89,2.48h-4V45.15h5.84c3.67.17,6.15,3,6.66,6.88s-.06,7.08-1.65,8.9"></path>
<path class="lettering" d="M209.39,82.42c-1.37-.62-2.13-2.81-2.58-3.9L191.74,42h-3.18L173.94,80.17l-.11.29a3,3,0,0,1-.83,1.43c-.51.32-4.47,2.16-4.51,2.18V85h13.4v-.94l-4.73-1.74a1.07,1.07,0,0,1-.75-1.46l3.31-8.69H195l3.33,8.57a1,1,0,0,1-.45,1.51l-4.15,1.82V85H213v-.94ZM180.64,69.75l6.69-17.31L194,69.75Z"></path>
<path class="lettering" d="M337.88,71.48V49c0-2,0-2.21-1-2.7l-4.91-2.45V42.71h14.58v1.17l-4.9,2.45c-1,.49-1,.67-1,2.7V85.75h-2.73l-.06-.07L307.23,51.53v27c0,2,0,2.21,1,2.7l4.9,2.87V85H298.58v-.93l4.9-2.87c1-.49,1-.67,1-2.7V49.81c0-1.49-.33-1.62-.9-2.13l-4.68-4v-.94h13.28l.06.07Z"></path>
<path class="lettering" d="M371.18,84.07l-5.31-3.28c-.55-.41-1-.83-1-2.25V48.86c0-1.71.34-2,.95-2.26l5.3-2.86v-1h-20.8v1l5.3,2.86c.61.3,1,.55,1,2.26V78.54c0,1.43-.39,1.85-.95,2.25l-5.31,3.28V85h20.8Z"></path>
<path class="lettering" d="M273.51,85.92c-8.61,1.15-16.78-2.88-21.18-11.14a21.9,21.9,0,0,1-1.74-17A23.08,23.08,0,0,1,261.9,44.56a22.46,22.46,0,0,1,17.22-2A21.08,21.08,0,0,1,291.6,53c5.95,11.24,1.84,23.91-9.76,30.14a24.47,24.47,0,0,1-8.32,2.75m-8-39.71A10.23,10.23,0,0,0,260.81,48c-3,2.24-4.56,6.15-4.38,10.38a24,24,0,0,0,3.22,10.45c3.53,6,7.79,10.18,12.33,12a11.71,11.71,0,0,0,10.72-.65c3-2,4.62-5.61,4.75-9.62.29-9-7.61-20.7-16-23.66a12.29,12.29,0,0,0-6-.63"></path>
</g>
</svg>