<?xml version="1.0" encoding="utf-8"?>
<!-- Generator: Adobe Illustrator 26.0.3, SVG Export Plug-In . SVG Version: 6.00 Build 0)  -->
<svg version="1.1" id="Calque_1" xmlns="http://www.w3.org/2000/svg" width="374.92" height="168.33"
     viewBox="94.96 70.94 374.92 168.33">
    <style type="text/css">
        .st0{fill:#A32035;}
        .st1{fill:#85754E;}
        .st2{fill:#242729;}
        .st3{fill:#2D2E83;}
        .st4{fill:#FFFFFF;}
        .st5{fill:#E30613;}
        .st6{fill:#FFD500;}
        .st7{fill:#205CA8;}
    </style>
    <g>
        <g>
            <g>
                <g>
                    <path class="st0" d="M148.66,187.5v-16.81l-16.33-0.02l0,17.24c-13.16-4.05-17.58-17.59-16.64-30.87
				c1.69-23.84,24.42-52.99,59.58-68.96l-9.37-17.14c-42.43,19.65-69.3,54.17-70.85,85.94c-1.78,36.37,24.54,52.43,45.95,52.43
				c2.52,0,5.09-0.24,7.66-0.72V187.5z"/>
                    <path class="st0" d="M185.18,106.1l-9.71-17.7c-1.38,1.23-23.99,13.9-23.99,36.6c0,16.68,8.67,24.52,10.73,37.11
				c2.03,12.38-4.45,19.42-9.29,22.98v22.47c16.12-4.76,32.84-25.31,30.11-46.14c-2.22-16.94-11.36-26.07-11.36-36.42
				C171.66,114.47,182.58,107.66,185.18,106.1"/>
                </g>
                <g>
                    <polygon class="st1" points="106.74,224.32 106.74,220.3 114.09,220.3 114.09,238.54 109.35,238.54 109.35,224.32 			"/>
                    <g>
                        <path class="st1" d="M125.73,224.92c0,1.14,0.9,2.06,2.01,2.06c1.11,0,2.01-0.92,2.01-2.06c0-1.14-0.89-2.06-2.01-2.06
					C126.62,222.87,125.73,223.79,125.73,224.92 M125.56,233.14c0,1.24,0.97,2.22,2.18,2.22c1.21,0,2.18-0.99,2.18-2.22
					c0-1.26-0.97-2.27-2.18-2.27C126.53,230.87,125.56,231.89,125.56,233.14 M133.95,224.78c0,1.94-1.21,3.58-2.88,4.14v0.05
					c2.18,0.72,3.63,2.39,3.63,4.79c0,3.77-3.82,5.51-6.96,5.51c-3.14,0-6.96-1.74-6.96-5.51c0-2.4,1.45-4.07,3.63-4.79v-0.05
					c-1.67-0.56-2.88-2.2-2.88-4.14c0-3.48,3.09-5.2,6.22-5.2C130.86,219.58,133.95,221.3,133.95,224.78"/>
                        <path class="st1" d="M144.43,226.33c0,1.67,1.26,3,2.93,3c1.67,0,3.02-1.33,3.02-3c0-1.67-1.35-3-3.02-3
					C145.69,223.33,144.43,224.66,144.43,226.33 M142.76,238.54l5.2-6.14l-0.05-0.05c-0.82,0.36-1.6,0.56-2.56,0.56
					c-3.58,0-5.85-3.07-5.85-6.43c0-4.47,3.67-6.89,7.84-6.89c1.76,0,3.8,0.43,5.2,1.57c1.47,1.19,2.44,3.12,2.44,5.03
					c0,2.64-1.35,5.17-2.92,7.25l-3.89,5.1H142.76z"/>
                    </g>
                    <path class="st1" d="M167.51,224.12h-0.05l-4.26,7.01h4.3V224.12z M174.12,231.14v3.63h-2.2v3.77h-4.4v-3.77h-8.85v-3.02
				l7.04-11.44h6.21v10.83H174.12z"/>
                </g>
                <g>
                    <path class="st2" d="M216.94,204c-2.45,0-4.62-0.29-6.48-0.86c-1.86-0.57-3.45-1.37-4.75-2.4c-1.31-1.03-2.35-2.26-3.12-3.68
				c-0.77-1.43-1.3-2.97-1.57-4.63h7.01c0.52,2.06,1.48,3.79,2.88,5.2c1.4,1.41,3.39,2.11,5.97,2.11c0.87,0,1.72-0.09,2.55-0.27
				c0.83-0.18,1.57-0.47,2.23-0.86c0.65-0.4,1.19-0.93,1.6-1.6c0.42-0.67,0.62-1.48,0.62-2.44c0-1.62-0.54-3.02-1.63-4.19
				c-1.09-1.17-2.44-2.23-4.07-3.18c-1.62-0.95-3.4-1.86-5.32-2.73c-1.92-0.87-3.69-1.85-5.32-2.94c-1.62-1.09-2.98-2.33-4.07-3.74
				c-1.09-1.4-1.63-3.12-1.63-5.14c0-1.62,0.36-3.14,1.07-4.55c0.71-1.4,1.75-2.62,3.12-3.65c1.37-1.03,3.04-1.83,5.02-2.41
				c1.98-0.57,4.22-0.86,6.71-0.86c2.1,0,3.99,0.29,5.67,0.86c1.68,0.58,3.17,1.36,4.45,2.35c1.29,0.99,2.37,2.17,3.24,3.54
				c0.87,1.37,1.54,2.82,2.02,4.36h-6.35c-0.36-0.99-0.78-1.93-1.28-2.82c-0.49-0.89-1.1-1.67-1.81-2.35
				c-0.71-0.67-1.57-1.21-2.58-1.6c-1.01-0.39-2.23-0.6-3.65-0.6c-1.31,0-2.41,0.17-3.3,0.51c-0.89,0.34-1.62,0.77-2.2,1.31
				c-0.57,0.54-0.98,1.14-1.22,1.81c-0.24,0.67-0.36,1.33-0.36,1.96c0,1.47,0.57,2.76,1.69,3.86c1.13,1.11,2.53,2.15,4.22,3.12
				c1.68,0.97,3.5,1.92,5.46,2.85c1.96,0.93,3.78,1.95,5.47,3.06c1.68,1.11,3.09,2.37,4.22,3.77c1.13,1.41,1.69,3.06,1.69,4.96
				c0,1.66-0.35,3.22-1.04,4.66c-0.7,1.45-1.72,2.7-3.09,3.77c-1.37,1.07-3.06,1.91-5.08,2.52C221.93,203.69,219.59,204,216.94,204"
                    />
                    <path class="st2" d="M241.53,162.06h10.16v26.5c0,1.62,0.25,3.14,0.74,4.54c0.49,1.41,1.2,2.62,2.11,3.65
				c0.91,1.03,2.03,1.85,3.35,2.46c1.33,0.62,2.8,0.92,4.43,0.92c1.62,0,3.09-0.3,4.39-0.92c1.31-0.61,2.42-1.43,3.33-2.46
				c0.91-1.03,1.61-2.25,2.11-3.65c0.5-1.41,0.74-2.92,0.74-4.54v-26.5h6.42v26.5c0,2.14-0.37,4.15-1.1,6.06
				c-0.73,1.9-1.87,3.57-3.42,5.02c-1.54,1.45-3.52,2.58-5.94,3.42c-2.41,0.83-5.33,1.24-8.73,1.24c-3.05,0-5.72-0.42-8.02-1.24
				c-2.3-0.83-4.24-1.97-5.82-3.42c-1.58-1.44-2.77-3.13-3.57-5.05c-0.79-1.92-1.19-3.95-1.19-6.09V162.06z"/>
                    <path class="st2" d="M299.56,199.13h5.41c1.98,0,3.85-0.37,5.61-1.1c1.76-0.73,3.3-1.81,4.61-3.24c1.31-1.43,2.35-3.18,3.12-5.26
				c0.77-2.08,1.16-4.46,1.16-7.16c0-2.29-0.36-4.43-1.07-6.41c-0.71-1.98-1.71-3.69-3-5.14c-1.29-1.44-2.82-2.57-4.6-3.39
				c-1.78-0.81-3.72-1.22-5.82-1.22h-5.41V199.13z M289.4,162.06h15.03c3.84,0,7.38,0.46,10.6,1.37c3.23,0.91,6.01,2.23,8.35,3.95
				c2.33,1.72,4.15,3.84,5.43,6.36c1.29,2.52,1.93,5.38,1.93,8.58c0,2.93-0.55,5.67-1.63,8.23c-1.09,2.56-2.68,4.78-4.78,6.69
				c-2.1,1.9-4.68,3.39-7.75,4.48c-3.07,1.09-6.59,1.63-10.55,1.63H289.4V162.06z"/>
                    <path class="st2" d="M349.28,181.07h2.2c1.23,0,2.38-0.17,3.45-0.51c1.07-0.33,1.99-0.83,2.76-1.48
				c0.77-0.66,1.37-1.45,1.81-2.38c0.43-0.93,0.66-1.99,0.66-3.18c0-2.18-0.64-3.97-1.9-5.38c-1.27-1.4-2.89-2.11-4.87-2.11h-4.1
				V181.07z M339.12,162.06h15.56c2.65,0,4.99,0.28,7.01,0.83c2.02,0.55,3.69,1.33,5.02,2.34c1.33,1.01,2.33,2.2,3,3.56
				c0.67,1.37,1.01,2.86,1.01,4.49c0,2.38-0.86,4.45-2.58,6.24c-1.72,1.78-4.01,3.13-6.86,4.04l14.67,19.78h-10.99l-13.9-18.71
				h-1.78v18.71h-10.16V162.06z"/>
                    <path class="st2" d="M401.32,200.79c2.02,0,3.8-0.47,5.35-1.4c1.54-0.93,2.83-2.21,3.86-3.83c1.03-1.62,1.81-3.56,2.35-5.82
				c0.53-2.26,0.8-4.71,0.8-7.37c0-2.61-0.26-5-0.8-7.16c-0.54-2.16-1.32-4.02-2.35-5.58c-1.03-1.57-2.32-2.78-3.86-3.65
				c-1.55-0.87-3.33-1.31-5.35-1.31c-2.02,0-3.8,0.44-5.34,1.31c-1.55,0.87-2.83,2.09-3.86,3.65c-1.03,1.57-1.81,3.42-2.35,5.58
				c-0.53,2.16-0.8,4.54-0.8,7.16c0,2.66,0.27,5.11,0.8,7.37c0.53,2.26,1.32,4.2,2.35,5.82c1.03,1.62,2.32,2.9,3.86,3.83
				C397.52,200.32,399.3,200.79,401.32,200.79 M401.32,204.29c-3.33,0-6.43-0.55-9.29-1.63c-2.87-1.09-5.37-2.6-7.49-4.54
				c-2.12-1.94-3.78-4.25-4.99-6.92c-1.21-2.67-1.81-5.61-1.81-8.82c0-3.13,0.6-5.99,1.81-8.58c1.21-2.59,2.87-4.82,4.99-6.68
				c2.12-1.86,4.62-3.31,7.49-4.36c2.87-1.05,5.97-1.57,9.29-1.57c3.33,0,6.43,0.52,9.3,1.57c2.87,1.05,5.38,2.5,7.52,4.36
				c2.14,1.86,3.81,4.09,5.02,6.68c1.21,2.59,1.81,5.43,1.81,8.52c0,3.29-0.61,6.29-1.81,9c-1.21,2.71-2.88,5.03-5.02,6.95
				c-2.14,1.92-4.65,3.4-7.52,4.45C407.74,203.77,404.64,204.29,401.32,204.29"/>
                    <polygon class="st2" points="462.97,162.06 462.97,188.32 439.39,162.06 432.92,162.06 432.92,203.35 439.33,203.35
				439.33,174.95 464.93,204 469.33,204 469.33,162.06 			"/>
                </g>
                <g>
                    <g>
                        <path class="st2" d="M227.45,123.98h17.23v15.92c-1.35,0.71-2.68,1.37-4.01,1.96c-1.33,0.59-2.73,1.11-4.22,1.54
					c-1.48,0.44-3.12,0.77-4.9,1.01c-1.78,0.24-3.78,0.36-6,0.36c-3.56,0-6.85-0.5-9.86-1.48c-3.01-0.99-5.59-2.4-7.75-4.22
					c-2.16-1.82-3.85-4.01-5.08-6.57c-1.23-2.55-1.84-5.39-1.84-8.52c0-3.29,0.61-6.3,1.84-9.03c1.23-2.73,2.92-5.07,5.08-7.01
					c2.16-1.94,4.73-3.45,7.72-4.52c2.99-1.07,6.27-1.6,9.83-1.6c2.09,0,4.12,0.28,6.06,0.83s3.73,1.3,5.38,2.23
					c1.64,0.93,3.13,2,4.46,3.21c1.32,1.21,2.42,2.47,3.29,3.77l-4.22,3.8c-0.87-1.22-1.78-2.38-2.73-3.44
					c-0.95-1.07-1.96-1.99-3.03-2.76c-1.07-0.77-2.22-1.38-3.45-1.84c-1.23-0.45-2.56-0.68-3.98-0.68c-2.14,0-4.13,0.38-5.97,1.16
					c-1.84,0.77-3.43,1.88-4.75,3.33c-1.33,1.45-2.38,3.23-3.15,5.34c-0.77,2.12-1.16,4.53-1.16,7.22c0,2.69,0.41,5.06,1.22,7.1
					c0.81,2.04,1.91,3.76,3.3,5.17c1.38,1.41,3.03,2.47,4.93,3.18c1.9,0.71,3.92,1.07,6.06,1.07c2.65,0,4.91-0.67,6.77-2.02v-10.99
					h-7.07V123.98z"/>
                    </g>
                    <rect x="256.83" y="102.83" class="st2" width="10.1" height="41.28"/>
                    <g>
                        <path class="st2" d="M288.67,121.84h2.2c1.23,0,2.38-0.17,3.45-0.51c1.07-0.33,1.99-0.83,2.76-1.48
					c0.77-0.66,1.37-1.45,1.81-2.38c0.43-0.93,0.66-1.99,0.66-3.18c0-2.18-0.64-3.97-1.9-5.38c-1.27-1.4-2.89-2.11-4.87-2.11h-4.1
					V121.84z M278.51,102.83h15.56c2.65,0,4.99,0.28,7.01,0.83c2.02,0.55,3.69,1.33,5.02,2.34c1.33,1.01,2.33,2.2,3,3.57
					c0.67,1.37,1.01,2.86,1.01,4.48c0,2.38-0.86,4.45-2.58,6.24c-1.72,1.78-4.01,3.13-6.86,4.04l14.67,19.78h-10.99l-13.9-18.71
					h-1.78v18.71h-10.16V102.83z"/>
                    </g>
                    <path class="st2" d="M329.6,128.97h12.41l-6.12-13.31L329.6,128.97z M339.93,101.94l19.31,42.18H348.9l-5.17-11.29h-16.04
				l-5.4,11.29h-6.95l20.2-42.18H339.93z"/>
                    <g>
                        <path class="st2" d="M374.88,121.84h2.2c1.23,0,2.38-0.17,3.45-0.51c1.07-0.33,1.99-0.83,2.76-1.48
					c0.77-0.66,1.37-1.45,1.81-2.38c0.43-0.93,0.66-1.99,0.66-3.18c0-2.18-0.64-3.97-1.9-5.38c-1.27-1.4-2.89-2.11-4.87-2.11h-4.1
					V121.84z M364.73,102.83h15.56c2.65,0,4.99,0.28,7.01,0.83c2.02,0.55,3.69,1.33,5.02,2.34c1.33,1.01,2.33,2.2,3,3.57
					c0.67,1.37,1.01,2.86,1.01,4.48c0,2.38-0.86,4.45-2.58,6.24c-1.72,1.78-4.01,3.13-6.86,4.04l14.67,19.78h-10.99l-13.9-18.71
					h-1.78v18.71h-10.16V102.83z"/>
                        <path class="st2" d="M418.08,139.9h5.41c1.98,0,3.85-0.37,5.61-1.1c1.76-0.73,3.3-1.81,4.61-3.24c1.31-1.43,2.35-3.18,3.12-5.26
					c0.77-2.08,1.16-4.46,1.16-7.16c0-2.29-0.35-4.43-1.07-6.41c-0.71-1.98-1.71-3.69-3-5.14c-1.29-1.44-2.82-2.57-4.6-3.39
					c-1.78-0.81-3.72-1.22-5.82-1.22h-5.41V139.9z M407.93,102.83h15.03c3.84,0,7.38,0.46,10.6,1.37c3.23,0.91,6.01,2.23,8.35,3.95
					c2.33,1.72,4.15,3.84,5.43,6.36c1.29,2.52,1.93,5.38,1.93,8.58c0,2.93-0.55,5.67-1.63,8.23c-1.09,2.56-2.68,4.78-4.78,6.69
					c-2.1,1.9-4.68,3.39-7.75,4.48c-3.07,1.09-6.59,1.63-10.55,1.63h-16.63V102.83z"/>
                    </g>
                </g>
            </g>
        </g>
        <g>
            <g>
                <rect x="202.38" y="225.93" class="st3" width="43.52" height="10.71"/>
                <rect x="245.83" y="225.93" class="st4" width="43.52" height="10.71"/>
                <rect x="289.27" y="225.93" class="st5" width="43.52" height="10.71"/>
            </g>
        </g>
        <g>
            <polygon class="st6" points="426.51,231.1 426.43,231.1 383.13,231.1 383.07,231.1 339.68,231.1 339.68,236.66 383.07,236.66
		383.13,236.66 426.43,236.66 426.51,236.66 469.88,236.66 469.88,231.1 	"/>
            <polygon class="st7" points="426.51,225.92 426.43,225.92 383.13,225.92 383.07,225.92 339.68,225.92 339.68,231.48 383.07,231.48
		383.13,231.48 426.43,231.48 426.51,231.48 469.88,231.48 469.88,225.92 	"/>
        </g>
    </g>
</svg>
