<svg xmlns="http://www.w3.org/2000/svg" width="120" height="36.842"><path d="M17.948 29.44h3.6V17.672H11.46v3.8h5.146a5.409 5.409 0 01-5.516 4.269c-3.218 0-5.706-2.223-5.706-7.333 0-5.082 2.489-7.305 5.706-7.305a5.036 5.036 0 014.942 3.332l5.211-.968c-1.456-4.149-4.842-6.635-10.152-6.635-6.576 0-11.09 4.394-11.09 11.579s4.656 11.522 11.088 11.522a8.36 8.36 0 006.861-3.049zm5.789 0h4.938V7.765h-4.938zm17.218-6.322a3.5 3.5 0 01-3.684 3.5 1.918 1.918 0 01-2.183-1.932c0-1.359 1.131-2.079 2.657-2.328a9.709 9.709 0 003.211-.8zm.478 6.321h4.895c-.4-.625-.436-1.534-.436-3.174v-8.126c0-3.316-2.359-5.513-7.416-5.513-4.421 0-6.875 1.8-7.7 4.789l4.521.842a3.08 3.08 0 013.068-2.229c1.7 0 2.586.673 2.586 1.794 0 .952-.842 1.392-4.152 1.816-4.283.532-6.747 1.862-6.747 5.364 0 3.042 2.655 4.827 5.509 4.827 2.359 0 4.516-.973 5.4-2.714a4.079 4.079 0 00.464 2.327m11.329-12.579h3.359v-3.789h-3.358v-5.31h-4.938v17.089c0 3.3 1.976 4.654 5.1 4.654 1.21 0 2.656-.014 3.115-.062v-3.713c-.368.014-.812.014-1.3.014-1.341 0-1.968-.444-1.968-2.073zm4.958 12.579h14.4v-3.775h-8.091l8.093-8.83v-3.761h-14.4v3.789h8.078l-8.078 8.867zm62.28-13.313h-9.939l8.614-4.936-2.308-3.968-8.613 4.936 4.973-8.55-4-2.291-4.973 8.549V0H99.13v9.871l-4.972-8.549-4 2.291 4.973 8.55-8.618-4.937-2.3 3.968 8.614 4.936H82.88v4.579h9.947l-8.614 4.939 2.308 3.968 8.614-4.936-4.973 8.55 4 2.291 4.973-8.549v9.872h4.616V26.97l4.973 8.549 4-2.291-4.977-8.549 8.613 4.936 2.308-3.968-8.615-4.936H120z" fill="#e30613"/></svg>