<svg class="GubiAnimatedLogo_root__qKIRu" viewBox="0 0 169 55" xmlns="http://www.w3.org/2000/svg"><path d="M38.125 32.475V35.475C38.125 39.225 37 42.15 34.825 44.25C32.575 46.35 29.575 47.4 25.825 47.4C21.25 47.4 17.725 45.75 15.175 42.3C12.625 38.85 11.35 34.05 11.35 27.75C11.35 21.525 12.55 16.725 15.1 13.275C17.65 9.825 21.1 8.1 25.525 8.1C28.975 8.1 31.75 9.075 33.85 10.95C35.875 12.825 36.925 15.45 36.925 18.825H47.125C47.125 13.425 45.1 9.075 41.2 5.925C37.3 2.775 32.2 1.125 25.825 1.125C18.325 1.125 12.25 3.525 7.67498 8.25C3.09998 12.975 0.849976 19.5 0.849976 27.75C0.849976 36.15 3.09998 42.675 7.67498 47.325C12.175 52.05 18.25 54.375 25.825 54.375C31.225 54.375 35.35 52.575 38.125 48.9L38.8 54H47.125V25.575H26.8V32.475H38.125Z"></path><path d="M88.4646 35.7C88.4646 39.45 87.4146 42.3 85.3896 44.325C83.3646 46.425 80.5896 47.4 77.1396 47.4C73.6146 47.4 70.8396 46.425 68.8146 44.325C66.7146 42.3 65.7396 39.45 65.7396 35.7V1.5H55.2396V35.7C55.2396 41.4 57.2646 45.975 61.3146 49.35C65.2896 52.725 70.5396 54.375 77.1396 54.375C83.6646 54.375 88.9146 52.725 92.9646 49.35C97.0146 45.975 99.0396 41.4 99.0396 35.7V1.5H88.4646V35.7Z"></path><path d="M131.962 54C137.137 54 141.337 52.725 144.562 50.175C147.712 47.625 149.362 44.175 149.362 39.675C149.362 33.225 146.137 28.8 139.687 26.55C144.712 24.225 147.262 20.4 147.262 15C147.262 10.8 145.687 7.5 142.612 5.1C139.537 2.7 135.412 1.5 130.162 1.5H108.787V54H131.962ZM119.287 30.3H129.937C132.787 30.3 134.962 31.05 136.612 32.475C138.262 33.975 139.087 36 139.087 38.7C139.087 41.4 138.262 43.5 136.612 45C134.962 46.5 132.787 47.175 129.937 47.175H119.287V30.3ZM128.137 8.4C130.912 8.4 133.087 9.075 134.662 10.35C136.162 11.7 136.987 13.5 136.987 15.9C136.987 18.3 136.162 20.175 134.587 21.45C133.012 22.8 130.837 23.4 128.137 23.4H119.287V8.4H128.137Z"></path><path d="M167.773 54V1.5H157.273V54H167.773Z"></path></svg>