<?xml version="1.0" encoding="utf-8"?>
<!-- Generator: Adobe Illustrator 24.1.1, SVG Export Plug-In . SVG Version: 6.00 Build 0)  -->
<svg version="1.1" id="Livello_1" xmlns="http://www.w3.org/2000/svg" xmlns:xlink="http://www.w3.org/1999/xlink" x="0px" y="0px"
	 viewBox="0 0 205 100" style="enable-background:new 0 0 205 100;" xml:space="preserve">
<polygon points="7.6,13.3 7.6,64.7 18.5,64.7 18.5,46.3 23.5,41.3 40,64.7 53,64.7 31.3,33.4 50.7,13.3 37,13.3 18.5,33.2 
	18.5,13.3 "/>
<rect x="173.3" y="13.8" width="10.6" height="50.9"/>
<rect x="186.8" y="13.8" width="10.6" height="50.9"/>
<path d="M152.8,34.1c5.8,0,8,7.2,8,7.2h-15.9C144.8,40.8,146.9,34.1,152.8,34.1 M152.8,57.4c-8,0-8-8.3-8-8.3h26.6
	c0-24.3-18.6-22.9-18.6-22.9c-18.9,0-18.6,19.7-18.6,19.7c0,5.5,2.9,19.7,18.6,19.7s18.3-12.3,18.3-12.3l-10.3-0.4
	C160.7,52.9,160.7,57.4,152.8,57.4"/>
<path d="M66.2,57.1c0,0-6.1,0.4-6.1-3.6c0,0-0.4-3.6,4.3-4.9l10.3-2.6V51C74.7,51,74.9,57.1,66.2,57.1 M85,58.6V37.1
	c0-11.4-16.3-11.4-16.3-11.4c-17.4,0-16.4,12.9-16.4,12.9h9l0.3-1.5c0.7-3.4,4.7-3.9,7.1-3.9c2.2,0,6.1,1.3,6.1,3.9
	c0,2.7-3.5,3.2-3.5,3.2l-9,1.5c-12.7,2.4-12.3,12-12.3,12c0,11.1,12.3,11.5,12.3,11.5c9.5,0,12.4-4.3,12.4-4.3l1.2,3.8h10.7
	C84.7,62.4,85,58.6,85,58.6"/>
<g>
	<path d="M148.4,82.5c0-2.4,1.3-4.5,3.8-4.5c2.5,0,3.8,2.2,3.8,4.5c0,2.4-1.3,4.5-3.8,4.5C149.7,87.1,148.4,84.9,148.4,82.5
		 M147.6,82.5c0,2.8,1.6,5.2,4.5,5.2c2.9,0,4.5-2.4,4.5-5.2s-1.6-5.2-4.5-5.2C149.3,77.3,147.6,79.7,147.6,82.5 M138.1,87.5h0.7
		v-5.4c0-2.4,1.4-4.1,3.6-4.1c2.7,0,2.8,2.2,2.8,3.2v6.3h0.7v-6.1c0-1.2-0.1-4-3.5-4c-1.5,0-3.1,0.9-3.6,2.3h-0.1v-2.1h-0.7V87.5z
		 M135.8,79.9c0-2-1.7-2.6-3.5-2.6c-2.4,0-3.7,1.1-3.8,3.3h0.7c0.1-1.7,1.3-2.7,3.1-2.7c2.2,0,2.8,1.5,2.8,1.9
		c0,1.6-0.1,1.8-3.4,2.1c-1.6,0.1-3.7,0.6-3.7,2.9c0,2.1,1.4,2.8,3.3,2.8c1.9,0,3.2-1,3.7-2.2h0.1v0.5c0,0.8,0.2,1.4,1.3,1.4
		c0.2,0,0.4-0.1,0.6-0.1v-0.6c-0.2,0.1-0.4,0.1-0.5,0.1c-0.7,0-0.7-0.6-0.7-1.2L135.8,79.9L135.8,79.9z M135.1,83.7
		c0,0.5-0.4,3.4-3.7,3.4c-1.7,0-2.6-1-2.6-2.2c0-1.5,1-2.1,2.7-2.3c1.4-0.2,3-0.1,3.6-0.8V83.7z M125.6,87.5h0.7V73.7h-0.7V87.5z
		 M123.3,73.7h-0.7v2h0.7V73.7z M123.3,77.6h-0.7v9.9h0.7V77.6z M107,87.5h0.9V74.8h0.1l5.3,12.8h0.9l5.3-12.8h0.1v12.8h0.9V73.7
		H119l-5.4,12.8h-0.1l-5.4-12.8H107V87.5z"/>
</g>
<g>
	<path d="M96.8,87.5h0.7v-5.4c0-2.4,1.4-4.1,3.6-4.1c2.7,0,2.8,2.2,2.8,3.2v6.3h0.7v-6.1c0-1.2-0.1-4-3.5-4c-1.5,0-3.1,0.9-3.6,2.3
		h-0.1v-2.1h-0.7L96.8,87.5L96.8,87.5z M94.7,73.7h-0.7v2h0.7V73.7z M94.7,77.6h-0.7v9.9h0.7V77.6z"/>
</g>
<g>
	<path d="M84.1,82c0.2-2,1.4-4,3.7-4c2.3,0,3.6,1.9,3.6,4H84.1z M92.2,82.6c0.1-2.8-1.3-5.3-4.4-5.3c-3,0-4.4,2.7-4.4,5.4
		c-0.1,2.8,1.5,5,4.4,5c2.3,0,3.9-1.3,4.3-3.6h-0.7c-0.4,1.8-1.7,3-3.6,3c-2.5,0-3.7-2.1-3.7-4.5L92.2,82.6L92.2,82.6z M80.9,87.5
		h0.7V73.7h-0.7v6.1h-0.1c-0.5-1.6-2-2.5-3.7-2.5c-3,0-4.4,2.3-4.4,5.2c0,2.8,1.3,5.2,4.3,5.2c1.8,0,3-0.8,3.8-2.4h0.1L80.9,87.5
		L80.9,87.5z M77.2,87.1c-2.6,0-3.7-2.2-3.7-4.5c0-2.4,1.1-4.6,3.7-4.6c2.6,0,3.7,2.2,3.7,4.6C80.9,84.8,79.7,87.1,77.2,87.1
		 M71.1,79.9c0-2-1.7-2.6-3.5-2.6c-2.4,0-3.7,1.1-3.8,3.3h0.7c0.1-1.7,1.3-2.7,3.1-2.7c2.2,0,2.8,1.5,2.8,1.9c0,1.6-0.1,1.8-3.4,2.1
		c-1.6,0.1-3.7,0.6-3.7,2.9c0,2.1,1.4,2.8,3.3,2.8s3.2-1,3.7-2.2h0.1v0.5c0,0.8,0.2,1.4,1.3,1.4c0.2,0,0.4-0.1,0.6-0.1v-0.6
		c-0.2,0.1-0.4,0.1-0.5,0.1c-0.7,0-0.7-0.6-0.7-1.2L71.1,79.9L71.1,79.9z M70.3,83.7c0,0.5-0.4,3.4-3.7,3.4c-1.7,0-2.6-1-2.6-2.2
		c0-1.5,1-2.1,2.7-2.3c1.4-0.2,3-0.1,3.6-0.8V83.7z M48.3,87.5h0.9V74.8h0.1l5.3,12.8h0.9l5.3-12.8h0.1v12.8h0.9V73.7h-1.2L55,86.6
		h-0.1l-5.4-12.8h-1.2L48.3,87.5L48.3,87.5z"/>
</g>
<path d="M111.3,27.6h5.9V15.8h10.2v11.8h6.8v6.9h-6.8v20.2c0,0,0.4,2.3,2.3,2.3h4.8v7.7h-7.1c0,0-10.2,1.2-10.2-10V34.5h-5.9
	L111.3,27.6L111.3,27.6z"/>
<path d="M87.7,27.6h9.9v5.7c0,0,2.1-6.8,10.1-6.8c0,0,1.9,0,1.9,0.4v9.1c0,0-0.8-0.3-1.9-0.3c-1.1,0-10.1,0.5-10.1,10.6v18.4h-9.9
	V27.6z"/>
</svg>
