<svg viewBox="0 0 120 23" xmlns="http://www.w3.org/2000/svg"><g fill-rule="evenodd"><path d="M108.576 17.372c-1.706 0-4.325-1.122-4.325-5.946s2.619-5.946 4.325-5.946c1.707 0 4.326 1.122 4.326 5.946s-2.62 5.946-4.326 5.946m0-17.292c-6.613 0-11.03 4.731-11.03 11.346s4.417 11.346 11.03 11.346c6.615 0 11.034-4.73 11.034-11.346S115.19.08 108.576.08M54.187.494h-5.318a.709.709 0 00-.709.704v11.15c0 2.224 0 5.002-3.186 5.002-3.272 0-3.272-2.778-3.272-5.002V1.198a.709.709 0 00-.71-.704h-5.319a.706.706 0 00-.706.704v12.643c0 6.037 3.305 8.931 9.978 8.931 6.675 0 9.947-2.894 9.947-8.931V1.198a.706.706 0 00-.705-.704M75.914.494h-5.317a.707.707 0 00-.71.704v11.15c0 2.224 0 5.002-3.182 5.002-3.278 0-3.278-2.778-3.278-5.002V1.198a.706.706 0 00-.708-.704h-5.314a.708.708 0 00-.711.704v12.643c0 6.037 3.31 8.931 9.98 8.931 6.672 0 9.95-2.894 9.95-8.931V1.198a.707.707 0 00-.71-.704M23.143.077c-2.788 0-4.982.505-6.591 1.535C14.934.582 12.734.077 9.947.077 3.274.077 0 2.972 0 9.007v12.64c0 .392.316.709.705.709h5.321c.39 0 .705-.317.705-.708V10.5c0-2.227 0-4.998 3.186-4.998 3.275 0 3.275 2.771 3.275 4.998v11.147c0 .39.32.708.709.708h5.318c.39 0 .707-.317.707-.708V10.5c0-2.227 0-4.998 3.184-4.998 3.277 0 3.277 2.771 3.277 4.998v11.147c0 .39.316.708.706.708h5.318a.708.708 0 00.708-.708V9.007c0-6.035-3.304-8.93-9.976-8.93M96.441.494H78.878a.706.706 0 00-.707.704v4.167c0 .391.315.703.707.703h5.413v15.589c0 .388.316.704.71.704h5.313a.709.709 0 00.713-.704V6.068h5.414c.39 0 .705-.312.705-.703V1.198a.705.705 0 00-.705-.704"></path></g></svg>