<?xml version="1.0" encoding="utf-8"?>
<!-- Generator: Adobe Illustrator 23.0.2, SVG Export Plug-In . SVG Version: 6.00 Build 0)  -->
<svg version="1.1" id="Calque_1" xmlns="http://www.w3.org/2000/svg" xmlns:xlink="http://www.w3.org/1999/xlink" x="0px" y="0px"
	 viewBox="0 0 236 114" style="enable-background:new 0 0 236 114;" xml:space="preserve">
<style type="text/css">
	.st0{fill-rule:evenodd;clip-rule:evenodd;fill:#BF243A;}
</style>
<g>
	<g>
		<path class="st0" d="M50.5,43.7h10.8c3.6,0,6.5,2.9,6.5,6.5s-2.9,6.5-6.5,6.5H50.5V43.7z M50.5,82.5V60.9h10.8
			c5.9,0,10.7-4.8,10.7-10.7s-4.8-10.7-10.7-10.7H48.5c-1.2,0-2.1,0.9-2.1,2.1v40.9c0,1.2,0.9,2.1,2.1,2.1
			C49.6,84.6,50.5,83.7,50.5,82.5z"/>
		<path class="st0" d="M65.9,69c8.5-2,14.8-9.7,14.8-18.8c0-10.7-8.7-19.3-19.3-19.3H39.8c-1.2,0-2.1,0.9-2.1,2.1v49.6
			c0,1.2,0.9,2.1,2.1,2.1c1.2,0,2.1-0.9,2.1-2.1V35.1h19.5c8.4,0,15.1,6.8,15.1,15.1c0,8.4-6.8,15.1-15.1,15.1
			c-0.8,0-1.6,0.5-1.9,1.3c-0.3,0.8-0.1,1.7,0.5,2.3L75,84c0.4,0.4,0.9,0.6,1.5,0.6c0.5,0,1.1-0.2,1.5-0.6c0.8-0.8,0.8-2.1,0-3
			L65.9,69 M111.6,40.9h-4.7c-0.1,0-0.1,0-0.1-0.1v-5.8c0-0.1,0-0.1,0.1-0.1h4.7c1.9,0,3.3,1.2,3.3,3
			C114.8,39.7,113.5,40.9,111.6,40.9z M111.7,31.2h-7.1c-1.1,0-1.8,0.7-1.8,1.8v18.4c0,1.3,0.8,2.1,2,2.1c1.2,0,2-0.8,2-2.1v-6.8
			c0-0.1,0-0.1,0.1-0.1h4l3.9,7.8c0.4,0.8,1.1,1.2,2,1.2c1.1,0,1.9-0.8,1.9-1.9c0-0.4-0.1-0.9-0.3-1.2l-3.5-6.6
			c2.4-1.1,3.9-3.3,3.9-6c0-1.9-0.7-3.6-2-4.8C115.5,31.9,113.7,31.2,111.7,31.2z M136.7,47.3c-0.6,1.8-2,2.8-3.9,2.8
			c-2,0-3.3-1-3.9-2.8c-0.3-1-0.4-2.2-0.4-5c0-2.8,0.1-4,0.4-5c0.6-1.8,2-2.8,3.9-2.8c2,0,3.3,1,3.9,2.8c0.3,1,0.4,2.2,0.4,5
			C137.1,45.1,137,46.3,136.7,47.3L136.7,47.3z M132.7,30.9c-3.9,0-6.7,1.9-7.8,5.3c-0.5,1.6-0.7,2.8-0.7,6.1c0,3.3,0.1,4.5,0.7,6.1
			c1.1,3.4,3.9,5.3,7.8,5.3c3.9,0,6.7-1.9,7.8-5.3c0.5-1.6,0.6-2.8,0.6-6.1s-0.1-4.5-0.6-6.1C139.4,32.8,136.6,30.9,132.7,30.9z
			 M154.4,53.7c3.9,0,6.7-1.9,7.8-5.5c0.4-1.1,0.6-2.9,0.6-4.9v-0.6c0-1-0.6-1.7-1.6-1.7h-4.9c-1.1,0-1.8,0.7-1.8,1.7
			c0,1,0.7,1.7,1.8,1.7h2.5c0.1,0,0.1,0,0.1,0.1c0,0.6,0,1.9-0.4,2.8c-0.6,1.7-2,2.7-4,2.7c-2.1,0-3.4-1-4-2.8
			c-0.3-0.9-0.4-1.9-0.4-5s0.1-4.1,0.4-5c0.6-1.9,2-2.8,4-2.8c1.7,0,2.9,0.6,3.8,1.9c0.5,0.7,1,1,1.8,1c1.1,0,1.8-0.8,1.8-1.8
			c0-0.4-0.1-0.8-0.3-1.2c-1.2-2.2-3.8-3.6-7.1-3.6c-4,0-6.8,1.9-7.9,5.3c-0.5,1.6-0.6,2.9-0.6,6.1c0,3.2,0.1,4.5,0.6,6.1
			C147.6,51.8,150.4,53.7,154.4,53.7 M198.7,40.9H194c-0.1,0-0.1,0-0.1-0.1v-5.8c0-0.1,0-0.1,0.1-0.1h4.7c1.9,0,3.3,1.2,3.3,3
			C202,39.7,200.6,40.9,198.7,40.9L198.7,40.9z M204,53.5c1.1,0,1.9-0.8,1.9-1.9c0-0.4-0.1-0.9-0.3-1.2l-3.5-6.6
			c2.4-1.1,3.9-3.3,3.9-6c0-1.9-0.7-3.6-2-4.8c-1.3-1.2-3.1-1.9-5.1-1.9h-7.1c-1.1,0-1.8,0.7-1.8,1.8v18.4c0,1.3,0.8,2.1,2,2.1
			c1.2,0,2-0.8,2-2.1v-6.8c0-0.1,0-0.1,0.1-0.1h4l3.9,7.8C202.4,53.1,203.1,53.5,204,53.5L204,53.5z M111.2,72.5h-4.3
			c-0.1,0-0.1,0-0.1-0.1V66c0-0.1,0-0.1,0.1-0.1h4.3c2.2,0,3.6,1.3,3.6,3.3S113.4,72.5,111.2,72.5L111.2,72.5z M111.4,62.3h-6.9
			c-1.1,0-1.8,0.7-1.8,1.8v18.4c0,1.3,0.8,2.1,2,2.1c1.2,0,2-0.8,2-2.1v-6.3c0-0.1,0-0.1,0.1-0.1h4.6c2.1,0,4-0.7,5.3-1.9
			c1.3-1.3,2.1-3,2.1-5c0-2-0.7-3.8-2.1-5C115.4,62.9,113.6,62.3,111.4,62.3L111.4,62.3z M133.5,71.9h-4.7c-0.1,0-0.1,0-0.1-0.1V66
			c0-0.1,0-0.1,0.1-0.1h4.7c1.9,0,3.3,1.2,3.3,3C136.8,70.7,135.5,71.9,133.5,71.9z M140.7,68.9c0-1.9-0.7-3.6-2-4.8
			c-1.3-1.2-3.1-1.9-5.1-1.9h-7.1c-1.1,0-1.8,0.7-1.8,1.8v18.4c0,1.3,0.8,2.1,2,2.1c1.2,0,2-0.8,2-2.1v-6.8c0-0.1,0-0.1,0.1-0.1h4
			l3.9,7.8c0.4,0.8,1.1,1.2,2,1.2c1.1,0,1.9-0.8,1.9-1.9c0-0.4-0.1-0.9-0.3-1.2l-3.5-6.6C139.3,73.8,140.7,71.6,140.7,68.9
			L140.7,68.9z M151.5,76.2l2.9-8.3l2.9,8.3H151.5L151.5,76.2z M157,64.3c-0.6-1.5-1.4-2.2-2.6-2.2c-1.3,0-2.1,0.7-2.6,2.2L145.3,82
			c-0.1,0.2-0.1,0.5-0.1,0.7c0,1.2,1,1.9,1.9,1.9c0.9,0,1.6-0.5,1.9-1.4l1.1-3.4h8.3l1.2,3.4c0.3,0.9,1,1.4,1.9,1.4
			c0.9,0,1.9-0.7,1.9-1.9c0-0.2,0-0.5-0.1-0.7L157,64.3L157,64.3z M180,77.9c-0.6,2-2.2,2.9-4.8,2.9h-2.9c-0.1,0-0.1,0-0.1-0.1V66
			c0-0.1,0-0.1,0.1-0.1h2.9c2.6,0,4.1,0.9,4.8,2.9c0.3,1,0.4,2.4,0.4,4.6C180.4,75.5,180.3,76.9,180,77.9L180,77.9z M175.5,62.3
			h-5.4c-1.1,0-1.8,0.7-1.8,1.8v18.6c0,1.1,0.7,1.8,1.8,1.8h5.4c4.6,0,7.3-1.6,8.4-5.1c0.4-1.3,0.6-2.8,0.6-6c0-3.2-0.2-4.7-0.6-6
			C182.7,63.9,180,62.3,175.5,62.3L175.5,62.3z M191.9,62.1c-1.2,0-2,0.8-2,2.1v18.3c0,1.3,0.8,2.1,2,2.1s2-0.8,2-2.1V64.2
			C193.9,62.9,193.1,62.1,191.9,62.1 M204.3,65.9h8.4c1.2,0,2-0.7,2-1.8c0-1.1-0.8-1.8-2-1.8H202c-1.1,0-1.8,0.7-1.8,1.8v18.5
			c0,1.1,0.7,1.8,1.8,1.8h10.7c1.2,0,2-0.7,2-1.8c0-1.1-0.8-1.8-2-1.8h-8.4c-0.1,0-0.1,0-0.1-0.1v-5.6c0-0.1,0-0.1,0.1-0.1h7
			c1.2,0,2-0.7,2-1.8s-0.8-1.8-2-1.8h-7c-0.1,0-0.1,0-0.1-0.1L204.3,65.9C204.2,65.9,204.2,65.9,204.3,65.9 M229.2,71.9h-4.7
			c-0.1,0-0.1,0-0.1-0.1V66c0-0.1,0-0.1,0.1-0.1h4.7c1.9,0,3.3,1.2,3.3,3C232.4,70.7,231.1,71.9,229.2,71.9z M232.6,74.9
			c2.4-1.1,3.9-3.3,3.9-6c0-1.9-0.7-3.6-2-4.8c-1.3-1.2-3.1-1.9-5.1-1.9h-7.1c-1.1,0-1.8,0.7-1.8,1.8v18.4c0,1.3,0.8,2.1,2,2.1
			c1.2,0,2-0.8,2-2.1v-6.8c0-0.1,0-0.1,0.1-0.1h4l3.9,7.8c0.4,0.8,1.1,1.2,2,1.2c1.1,0,1.9-0.8,1.9-1.9c0-0.4-0.1-0.9-0.3-1.2
			C236.1,81.5,232.6,74.9,232.6,74.9z M170.2,53.4h10.7c1.2,0,2-0.7,2-1.8c0-1.1-0.8-1.8-2-1.8h-8.4c-0.1,0-0.1,0-0.1-0.1v-5.6
			c0-0.1,0-0.1,0.1-0.1h7c1.2,0,2-0.7,2-1.8s-0.8-1.8-2-1.8h-7c-0.1,0-0.1,0-0.1-0.1v-5.4c0-0.1,0-0.1,0.1-0.1h8.4
			c1.2,0,2-0.7,2-1.8c0-1.1-0.8-1.8-2-1.8h-10.7c-1.1,0-1.8,0.7-1.8,1.8v18.5C168.4,52.7,169.1,53.4,170.2,53.4 M18.4,91
			c-0.2,0.8-0.6,1.5-1.4,2.1c-0.6,0.5-1.3,0.8-1.9,0.8c-0.6,0-1.1-0.2-1.6-0.7c-0.4-0.5-0.6-1.2-0.4-2c0.2-0.8,0.6-1.5,1.4-2.1
			c0.6-0.5,1.3-0.8,1.9-0.8c0.6,0,1.1,0.2,1.5,0.7C18.4,89.5,18.5,90.2,18.4,91z M16.1,87.5c-0.9-0.1-1.8,0.2-2.6,0.9
			c-0.8,0.7-1.2,1.4-1.3,2.4c-0.1,0.9,0.2,1.8,0.8,2.6c0.6,0.8,1.4,1.2,2.4,1.3c0.9,0.1,1.8-0.2,2.6-0.9c0.8-0.7,1.2-1.4,1.3-2.4
			c0.1-0.9-0.2-1.8-0.8-2.6C17.8,88,17,87.6,16.1,87.5z M12.9,82.1c0.1-0.7,0-1.4-0.3-2.1c-0.4-0.7-0.9-1.2-1.5-1.4
			c-0.6-0.3-1.4-0.2-2.3,0.3l-3.2,1.6L4.9,80l-0.1,0.1l1.2,2.3l0.1-0.1L6,81.2l3.4-1.8c0.6-0.3,1.1-0.4,1.6-0.2
			c0.4,0.2,0.7,0.4,0.9,0.9c0.3,0.5,0.3,1,0.2,1.5c-0.1,0.5-0.6,1-1.3,1.4l-3,1.6L7,83.9L6.8,84l1.3,2.5l0.1-0.1l0-0.9l3.2-1.6
			C12.3,83.4,12.8,82.8,12.9,82.1 M5,74.8l-1.7-0.3L2.9,73l5.5-1.6l0.7,0.9l0.2,0l-0.9-3.1l-0.2,0l-0.1,1.1l-5.5,1.6l-0.5-1.6
			l1.3-1.1l0-0.2l-2.1,0.6l1.7,6L5.1,75L5,74.8 M0.9,63l-0.1-0.9c-0.1-0.9,0.1-1.6,0.6-2.1c0.5-0.5,1.2-0.8,2-0.9
			c0.9-0.1,1.6,0.1,2.1,0.6c0.6,0.4,0.9,1.1,0.9,1.9l0.1,1.1C6.6,62.6,0.9,63,0.9,63z M7.2,64.5l0.2,0l-0.2-3.1
			C7,60.7,6.8,60,6.5,59.5c-0.4-0.5-0.8-1-1.4-1.2c-0.6-0.3-1.2-0.4-2-0.3c-0.9,0.1-1.6,0.4-2.2,1.1c-0.5,0.7-0.8,1.6-0.7,2.8
			L0.5,65l0.2,0L1,64.1l5.7-0.4L7.2,64.5z M1,49.7C1.1,49,1.4,48.4,2.1,48c0.7-0.4,1.5-0.5,2.5-0.4c0.8,0.1,1.4,0.4,1.9,0.9
			c0.4,0.5,0.6,1,0.5,1.6c-0.1,0.7-0.5,1.3-1.2,1.7c-0.7,0.4-1.5,0.5-2.5,0.4c-0.8-0.1-1.4-0.4-1.9-0.9C1,50.8,0.9,50.3,1,49.7z
			 M3.5,53.4c1,0.1,1.9-0.1,2.6-0.6c0.8-0.6,1.2-1.3,1.3-2.3c0.1-1-0.1-1.9-0.7-2.6c-0.6-0.8-1.4-1.2-2.4-1.3
			c-1-0.1-1.9,0.1-2.7,0.6c-0.8,0.6-1.2,1.4-1.3,2.3c-0.1,1,0.1,1.9,0.7,2.6C1.7,52.8,2.5,53.2,3.5,53.4L3.5,53.4z M3.9,37.9
			c0.2-0.7,0.7-1.1,1.5-1.4c0.7-0.2,1.6-0.2,2.5,0.2c0.8,0.3,1.3,0.7,1.6,1.2c0.3,0.5,0.4,1.1,0.1,1.7c-0.2,0.7-0.7,1.1-1.5,1.4
			c-0.7,0.2-1.6,0.2-2.5-0.2c-0.8-0.3-1.3-0.7-1.6-1.3C3.7,39,3.7,38.5,3.9,37.9z M5.6,42c1,0.4,1.9,0.3,2.7-0.1
			c0.9-0.4,1.5-1.1,1.8-2c0.4-0.9,0.3-1.8-0.1-2.7c-0.4-0.9-1.1-1.5-2-1.8c-1-0.4-1.9-0.3-2.7,0.1c-0.9,0.4-1.5,1.1-1.8,2
			c-0.3,0.9-0.3,1.8,0.1,2.7C3.9,41.1,4.6,41.7,5.6,42z M8.9,28c0.3-0.4,0.6-0.7,0.9-0.8c0.3-0.1,0.7-0.1,1,0.1
			c0.3,0.2,0.5,0.5,0.6,0.9c0.1,0.4,0,0.7-0.3,1.1l-0.4,0.6l-2.2-1.4C8.5,28.5,8.9,28,8.9,28z M8,29.4l4.8,3l-0.1,0.9l0.1,0.1
			l1.4-2.3l-0.1-0.1l-0.8,0.4l-2.2-1.4l0.5-0.7l3.7,0l0.9-1.4l-0.1-0.1l-0.7,0.4l-3.5,0.1c0.1-0.5,0.1-0.9,0-1.2
			c-0.1-0.4-0.3-0.7-0.7-0.9c-0.4-0.3-0.9-0.3-1.4-0.1c-0.5,0.2-0.9,0.6-1.3,1.2L7,29.9l0.1,0.1L8,29.4L8,29.4z M26.2,14.9L26,15.1
			l0.5,1.9l-1.9,1.5L21.1,14l0.5-0.9l-0.1-0.1l-2.3,1.8l0.1,0.1l0.9-0.2l3.6,4.5L23.4,20l0.1,0.1l4.1-3.3L26.2,14.9 M32,13.4l-2.8-5
			l0.5-0.8l-0.1-0.1l-2.4,1.4L27.3,9L28.3,9l2.8,5l-0.5,0.8l0.1,0.1l2.4-1.4L33,13.3L32,13.4 M39.6,10.7c0.4-0.2,0.8-0.4,1.2-0.7
			c0.4-0.3,0.7-0.7,0.9-1l-0.6-1.5l0.5-0.7l-0.1-0.2l-2.6,0.9l0.1,0.2l1,0.1l0.6,1.7c-0.2,0.1-0.3,0.2-0.5,0.3
			c-0.2,0.1-0.4,0.2-0.5,0.2c-0.7,0.3-1.4,0.2-2.1-0.1c-0.7-0.4-1.2-1-1.5-1.9c-0.3-0.8-0.3-1.5,0-2.1c0.3-0.7,0.8-1.1,1.5-1.4
			c0.4-0.1,0.9-0.2,1.5,0l1.1,0.9l0.2-0.1l-0.7-1.6c-0.3,0-0.7,0-1,0c-0.3,0-0.8,0.1-1.3,0.3c-0.6,0.2-1.2,0.6-1.6,1.1
			c-0.4,0.5-0.7,1.1-0.8,1.7c-0.1,0.6-0.1,1.3,0.2,2c0.3,0.9,0.9,1.5,1.8,1.9C37.8,11,38.7,11,39.6,10.7 M46,2.3l0.8,5.7L46,8.4
			l0,0.2l2.7-0.4l0-0.2l-0.9-0.3l-0.4-2.7l3.4-0.5l0.4,2.7l-0.8,0.5l0,0.2l2.7-0.4l0-0.2l-0.9-0.3l-0.8-5.7L52.3,1l0-0.2l-2.7,0.4
			l0,0.2l0.9,0.3l0.3,2.4l-3.4,0.5l-0.3-2.4l0.8-0.5l0-0.2l-2.7,0.4l0,0.2L46,2.3 M57.9,1.3l1.6,0.1l-0.4,5.7l-1.1,0.3l0,0.2
			l3.2,0.2l0-0.2l-1-0.5l0.4-5.7l1.7,0.1l0.6,1.6l0.2,0l0.1-2.1L57,0.7l-0.1,2.1l0.2,0L57.9,1.3 M68.9,9l-0.7-0.6l1.3-5.6l0.9-0.2
			l0-0.2l-2.7-0.6l0,0.2l0.7,0.6l-1.3,5.6l-0.9,0.2l0,0.2l2.7,0.6L68.9,9 M74.8,10.9L74,10.2l1.8-4.3l1.9,6.6l0.4,0.2l2.5-5.9
			l0.9-0.1l0.1-0.2l-2.4-1l-0.1,0.2l0.8,0.8l-1.7,4l-1.8-6.1L75,3.7l-0.1,0.2l0.6,0.7l-2.2,5.2l-0.9,0.1l-0.1,0.2l2.4,1L74.8,10.9
			 M84.9,16.7c0.4,0.3,0.8,0.5,1.3,0.6c0.5,0.1,0.9,0.2,1.3,0.2l0.9-1.4l0.9,0l0.1-0.1l-2.3-1.6l-0.1,0.1l0.5,0.9l-1,1.5
			c-0.2-0.1-0.4-0.1-0.6-0.2c-0.2-0.1-0.3-0.2-0.5-0.3c-0.6-0.4-1-1-1.1-1.8c-0.1-0.8,0.1-1.6,0.7-2.4c0.5-0.7,1-1.1,1.8-1.2
			c0.7-0.1,1.4,0,2,0.5c0.4,0.2,0.6,0.6,0.9,1.2l-0.1,1.5l0.1,0.1l0.9-1.5c-0.2-0.3-0.3-0.6-0.6-0.8c-0.2-0.3-0.5-0.5-1-0.9
			c-0.6-0.4-1.2-0.6-1.8-0.7c-0.7-0.1-1.3,0-1.9,0.3c-0.6,0.3-1.1,0.7-1.5,1.3c-0.6,0.8-0.7,1.6-0.6,2.5
			C83.6,15.4,84.1,16.1,84.9,16.7 M39.5,103.7l0.7,0.7l-1.7,5.5l-0.9,0.2l0,0.2l2.8,0.9l0-0.2l-0.8-0.7l0.8-2.6l1.6,0.5l0.3,1l0.2,0
			l0.7-2.2l-0.2,0l-0.8,0.7l-1.6-0.5l0.7-2.4l2.3,0.7l0.3,1.4l0.2,0.1l0.5-1.7l-5-1.5L39.5,103.7 M50.7,109.3l-0.7-0.1l0.3-2.6
			l0.6,0.1c0.5,0,0.9,0.2,1.1,0.5c0.3,0.3,0.4,0.6,0.3,1c0,0.4-0.2,0.7-0.5,0.9C51.5,109.3,51.1,109.4,50.7,109.3z M51.8,109.7
			c0.4-0.1,0.8-0.3,1.1-0.6c0.3-0.3,0.5-0.6,0.5-1c0.1-0.5-0.1-1-0.5-1.3c-0.4-0.3-1-0.6-1.7-0.6l-2.9-0.3l0,0.2l0.8,0.5l-0.6,5.8
			l-0.9,0.3l0,0.2l2.7,0.3l0-0.2l-0.7-0.5l0.3-2.6l0.9,0.1l1.7,3.4l1.7,0.2l0-0.2l-0.7-0.5L51.8,109.7L51.8,109.7z M60.5,110.3
			l0.8-2.6l1.3,2.4L60.5,110.3L60.5,110.3z M65,112.3l-3.3-6.2l-0.6,0.1l-2.1,6.7l-0.6,0.4l0,0.2l2.3-0.2l0-0.2l-0.9-0.3l0.6-2
			l2.5-0.3l1,1.8l-0.9,0.5l0,0.2l2.8-0.3l0-0.2L65,112.3L65,112.3z M75.4,103l-0.1-0.2l-2.5,0.8l0.1,0.2l1.2,0.1l1.4,4.2l-5.4-3.5
			l-1.6,0.5l0.1,0.2l0.9,0.2l1.8,5.5l-0.7,0.7l0.1,0.2l2.6-0.8l-0.1-0.2l-1.2-0.1l-1.5-4.5l5.9,3.8l0.4-0.1l-2-6.1L75.4,103
			 M86.3,102.4l0,1.4c-0.1,0.2-0.2,0.4-0.4,0.6c-0.2,0.2-0.4,0.4-0.7,0.6c-0.6,0.3-1.2,0.4-1.9,0.2c-0.7-0.2-1.3-0.8-1.8-1.6
			c-0.4-0.8-0.6-1.5-0.5-2.2c0.1-0.7,0.5-1.3,1.2-1.7c0.2-0.1,0.4-0.2,0.6-0.2c0.2,0,0.5,0,0.8,0l1.3,0.8l0.2-0.1l-1-1.6
			c-0.3,0-0.6,0.1-1,0.1c-0.3,0.1-0.7,0.2-1.2,0.5c-0.6,0.3-1,0.8-1.3,1.4c-0.3,0.6-0.5,1.2-0.5,1.9c0,0.7,0.2,1.3,0.5,1.9
			c0.5,0.8,1.2,1.4,2.1,1.6c0.9,0.2,1.8,0.1,2.7-0.5c0.5-0.3,0.9-0.6,1.1-0.8c0.3-0.3,0.5-0.5,0.7-0.8l-0.8-1.5L86.3,102.4
			 M94.7,95.7l0.4,1.5l-2.1,1.9l-1.8-2l1.3-1.2l1,0.3l0.1-0.1l-1.6-1.7L92,94.4l0.2,1l-1.3,1.2l-1.7-1.9l1.8-1.7l1.3,0.5l0.1-0.1
			l-1.2-1.4l-3.9,3.6l0.1,0.1l0.9-0.3l3.9,4.3l-0.4,0.9l0.1,0.1l4.2-3.7l-1.3-1.5L94.7,95.7 M28.2,100c-1-0.4-2.2,0.1-2.6,1.1
			c-0.4,1,0.1,2.2,1.1,2.6c1,0.4,2.2-0.1,2.6-1.1C29.8,101.6,29.2,100.4,28.2,100"/>
	</g>
</g>
</svg>
