<svg width="119" height="26" viewBox="0 0 119 26" fill="none" xmlns="http://www.w3.org/2000/svg">
<path d="M0 3.17907H7.26546V25.6382H10.5641V3.17907H17.8699V0H0V3.17907Z" fill="black"/>
<path fill-rule="evenodd" clip-rule="evenodd" d="M38.9577 9.54729C38.6832 10.3819 38.2431 11.162 37.6536 11.8373C36.4908 13.1094 34.9324 13.948 33.2305 14.2222L42.0686 25.6785H38.0876L29.5201 14.4802H26.6979V25.6785H23.4114V0.0302384H31.0402C32.1929 0.0221749 33.3396 0.193526 34.4398 0.536228C35.4007 0.828534 36.2889 1.32041 37.044 1.98163C37.5244 2.41504 37.9383 2.91297 38.2754 3.46129L38.3763 3.63063L38.4631 3.78787L38.5903 4.03582L38.7094 4.29386C39.1051 5.22924 39.3029 6.2392 39.2868 7.25521C39.313 8.0394 39.2 8.81552 38.9577 9.54729ZM26.6979 3.044V11.5491L30.8323 11.5692C31.773 11.6479 32.7117 11.4805 33.5576 11.0915C33.9351 10.9181 34.2944 10.7024 34.6255 10.4444C34.9303 10.1299 35.1847 9.77508 35.3845 9.39408C35.7176 8.75504 35.8973 8.04141 35.8973 7.30763C35.8973 6.53554 35.6995 5.78361 35.33 5.12038C35.1403 4.77768 34.9041 4.45715 34.6255 4.16887C33.5475 3.33228 32.1929 2.93111 30.8323 3.044H26.6979Z" fill="black"/>
<path d="M115.7 16.0687V0.0302384L118.999 0.143129V16.0385C119.019 17.4718 118.759 18.895 118.234 20.2295C117.769 21.3947 117.065 22.449 116.167 23.3259L116.017 23.463L115.737 23.7049L115.408 23.965L115.127 24.1706C114.445 24.6504 113.7 25.0374 112.91 25.3176C111.596 25.7853 110.209 26.0151 108.814 25.999C107.415 26.0172 106.026 25.7833 104.714 25.3076C103.497 24.8903 102.387 24.2129 101.462 23.3219C100.537 22.4289 99.8188 21.3463 99.3606 20.1469C98.8317 18.8123 98.5733 17.3891 98.5955 15.9558V0.0705564H101.892V16.1312C101.874 17.1311 102.045 18.1269 102.399 19.0623C102.538 19.4151 102.712 19.7518 102.916 20.0662C103.166 20.4533 103.465 20.8101 103.804 21.1266C104.428 21.7072 105.168 22.1507 105.974 22.4268C106.824 22.695 107.702 22.8381 108.582 22.8583C109.604 22.8824 110.631 22.7373 111.618 22.4268C112.424 22.1507 113.165 21.7072 113.789 21.1266C114.059 20.8686 114.301 20.5843 114.515 20.2799C114.794 19.8828 115.022 19.4474 115.194 18.9897C115.547 18.0584 115.718 17.0666 115.7 16.0687Z" fill="black"/>
<path d="M89.8805 0H93.9322L82.068 13.0368L94.9052 25.6382H90.5326L78.1597 13.4702V25.6382H74.8732V0H78.1597V12.8614L89.8805 0Z" fill="black"/>
<path d="M45.7064 11.2386H60.2696V11.2185H68.9219V14.3975H49.003V14.4177H45.7064V11.2386Z" fill="black"/>
<path d="M68.8997 0V3.17907H45.7064V0H68.8997Z" fill="black"/>
<path d="M45.7064 22.4591H68.8997V25.6382H45.7064V22.4591Z" fill="black"/>
</svg>
