<?xml version="1.0" standalone="no"?>
<!DOCTYPE svg PUBLIC "-//W3C//DTD SVG 20010904//EN"
 "http://www.w3.org/TR/2001/REC-SVG-20010904/DTD/svg10.dtd">
<svg version="1.0" xmlns="http://www.w3.org/2000/svg"
 width="601.000000pt" height="318.000000pt" viewBox="0 0 601.000000 318.000000"
 preserveAspectRatio="xMidYMid meet">

<g transform="translate(0.000000,318.000000) scale(0.100000,-0.100000)"
fill="#ffffff" stroke="none">
<path d="M2491 3100 c-18 -4 -37 -13 -41 -19 -8 -14 -20 -816 -20 -1385 l0
-411 -168 -59 c-858 -301 -1562 -650 -2075 -1029 l-112 -82 69 -3 c62 -3 73 0
105 24 102 75 394 262 531 339 419 238 997 492 1572 690 l166 57 1 642 c0 352
4 757 7 899 l7 257 459 0 458 0 0 -907 0 -908 158 -51 c566 -185 1118 -421
1522 -650 173 -98 448 -281 569 -378 l95 -76 65 0 66 1 -45 39 c-458 405
-1177 779 -2110 1100 l-225 78 -3 905 c-2 826 -4 906 -19 918 -13 11 -108 14
-507 16 -270 1 -506 -2 -525 -7z"/>
</g>
</svg>
